<?xml version="1.0" encoding="UTF-8" standalone="no"?>
<svg
   inkscape:version="1.1 (c68e22c387, 2021-05-23)"
   id="svg8"
   version="1.1"
   viewBox="0 0 37.041668 37.041865"
   height="1.4583411in"
   width="1.4583334in"
   sodipodi:docname="player-portrait-12.svg"
   inkscape:export-filename="C:\Users\gabyb\OneDrive - UW\Documents\DIY Files\Secret Hitler SVG\export\player-portrait-1.png"
   inkscape:export-xdpi="300"
   inkscape:export-ydpi="300"
   xmlns:inkscape="http://www.inkscape.org/namespaces/inkscape"
   xmlns:sodipodi="http://sodipodi.sourceforge.net/DTD/sodipodi-0.dtd"
   xmlns:xlink="http://www.w3.org/1999/xlink"
   xmlns="http://www.w3.org/2000/svg"
   xmlns:svg="http://www.w3.org/2000/svg"
   xmlns:rdf="http://www.w3.org/1999/02/22-rdf-syntax-ns#"
   xmlns:cc="http://creativecommons.org/ns#"
   xmlns:dc="http://purl.org/dc/elements/1.1/">
  <defs
     id="defs2">
    <linearGradient
       id="7"
       gradientTransform="matrix(0,0,0,0,-192.31873,38.641632)">
      <stop
         style="stop-color:#b3a995;stop-opacity:1;"
         offset="0"
         id="stop2624" />
    </linearGradient>
    <linearGradient
       id="6"
       gradientTransform="matrix(2.9598334,0,0,4.6482784,-971.19374,-788.49204)">
      <stop
         style="stop-color:#a19a86;stop-opacity:1;"
         offset="0"
         id="stop2980" />
    </linearGradient>
    <linearGradient
       id="8"
       gradientTransform="matrix(0,0,0,0,20.9488,-188.21513)">
      <stop
         style="stop-color:#c9c2b5;stop-opacity:1;"
         offset="0"
         id="stop2972" />
    </linearGradient>
    <linearGradient
       id="9"
       gradientTransform="matrix(0,0,0,0,-125.02103,120.44451)"
       inkscape:swatch="solid">
      <stop
         style="stop-color:#d3cdc3;stop-opacity:1;"
         offset="0"
         id="stop2966" />
    </linearGradient>
    <linearGradient
       id="4"
       gradientTransform="scale(1.3369113,0.74799279)"
       x1="41.05265"
       y1="37.347988"
       x2="59.21907"
       y2="37.347988"
       gradientUnits="userSpaceOnUse">
      <stop
         style="stop-color:#7e7867;stop-opacity:1;"
         offset="0"
         id="stop2597" />
    </linearGradient>
    <linearGradient
       id="2"
       x1="-86.010757"
       y1="-24.380556"
       x2="-66.571861"
       y2="-24.380556"
       gradientUnits="userSpaceOnUse">
      <stop
         style="stop-color:#4f4b41;stop-opacity:1;"
         offset="0"
         id="stop3000" />
    </linearGradient>
    <linearGradient
       id="6-0"
       x1="-86.010757"
       y1="-24.380556"
       x2="-78.779861"
       y2="-24.380556"
       gradientUnits="userSpaceOnUse">
      <stop
         style="stop-color:#a19a86;stop-opacity:1;"
         offset="0"
         id="stop2980-3" />
    </linearGradient>
    <linearGradient
       id="2-4"
       gradientTransform="matrix(0,0,0,0,-123.69291,-377.74216)">
      <stop
         style="stop-color:#4f4b41;stop-opacity:1;"
         offset="0"
         id="stop3000-6" />
    </linearGradient>
    <linearGradient
       id="4-6"
       gradientTransform="matrix(0,0,0,0,-114.96548,-519.45649)">
      <stop
         style="stop-color:#7e7867;stop-opacity:1;"
         offset="0"
         id="stop2597-7" />
    </linearGradient>
    <linearGradient
       id="4-8"
       gradientTransform="matrix(1.3369116,0,0,0.7479926,-20.148415,114.34856)"
       x1="104.70857"
       y1="37.48616"
       x2="122.87498"
       y2="37.48616"
       gradientUnits="userSpaceOnUse">
      <stop
         style="stop-color:#7e7867;stop-opacity:1;"
         offset="0"
         id="stop2597-8" />
    </linearGradient>
    <linearGradient
       id="7-8"
       x1="177.41472"
       y1="4.9445109"
       x2="214.45639"
       y2="4.9445109"
       gradientUnits="userSpaceOnUse"
       gradientTransform="translate(-36.494285,139.49333)">
      <stop
         style="stop-color:#b3a995;stop-opacity:1;"
         offset="0"
         id="stop2624-3" />
    </linearGradient>
    <linearGradient
       id="1"
       gradientTransform="matrix(0,0,0,0,138.26132,-799.29972)">
      <stop
         style="stop-color:#413e35;stop-opacity:1;"
         offset="0"
         id="stop3006" />
    </linearGradient>
    <linearGradient
       id="4-62"
       gradientTransform="matrix(1.3369111,0,0,0.74799287,107.2023,99.039514)"
       x1="41.092491"
       y1="94.595772"
       x2="59.258911"
       y2="94.595772"
       gradientUnits="userSpaceOnUse">
      <stop
         style="stop-color:#7e7867;stop-opacity:1;"
         offset="0"
         id="stop2597-82" />
    </linearGradient>
    <linearGradient
       id="8-7"
       x1="64.599564"
       y1="76.484734"
       x2="65.922211"
       y2="76.484734"
       gradientUnits="userSpaceOnUse"
       gradientTransform="translate(107.2023,99.039514)">
      <stop
         style="stop-color:#c9c2b5;stop-opacity:1;"
         offset="0"
         id="stop2972-5" />
    </linearGradient>
    <linearGradient
       id="8-0"
       x1="103.96806"
       y1="48.521393"
       x2="115.8477"
       y2="48.521393"
       gradientUnits="userSpaceOnUse"
       gradientTransform="translate(72.273042,90.42636)">
      <stop
         style="stop-color:#c9c2b5;stop-opacity:1;"
         offset="0"
         id="stop2972-6" />
    </linearGradient>
    <linearGradient
       id="4-1"
       gradientTransform="matrix(1.3369111,0,0,0.74799287,56.540262,111.57045)"
       x1="105.044"
       y1="93.978508"
       x2="123.21043"
       y2="93.978508"
       gradientUnits="userSpaceOnUse">
      <stop
         style="stop-color:#7e7867;stop-opacity:1;"
         offset="0"
         id="stop2597-0" />
    </linearGradient>
    <clipPath
       clipPathUnits="userSpaceOnUse"
       id="clipPath1380">
      <rect
         ry="2.0045214"
         y="52.25993"
         x="135.90947"
         height="37.041668"
         width="37.041668"
         id="rect1382"
         style="opacity:1;vector-effect:none;fill:url(#linearGradient1384);fill-opacity:1;stroke:none;stroke-width:0.861999;stroke-linecap:round;stroke-linejoin:bevel;stroke-miterlimit:4;stroke-dasharray:none;stroke-dashoffset:0;stroke-opacity:1;paint-order:normal" />
    </clipPath>
    <linearGradient
       id="3"
       gradientTransform="scale(3.9615237,0.25242813)"
       x1="55.817123"
       y1="301.75909"
       x2="57.486427"
       y2="301.75909"
       gradientUnits="userSpaceOnUse">
      <stop
         style="stop-color:#615b4c;stop-opacity:1;"
         offset="0"
         id="stop2994" />
    </linearGradient>
    <linearGradient
       id="3-0"
       gradientTransform="matrix(1.8881148,1.6826517e-8,0,0.52962881,-10.467449,97.041167)"
       x1="102.55329"
       y1="60.999062"
       x2="107.57448"
       y2="60.999062"
       gradientUnits="userSpaceOnUse">
      <stop
         style="stop-color:#615b4c;stop-opacity:1;"
         offset="0"
         id="stop2994-7" />
    </linearGradient>
    <linearGradient
       id="6-2"
       gradientTransform="matrix(0.93748565,0,0,1.066683,150.24989,46.36545)"
       x1="18.737856"
       y1="89.936691"
       x2="34.254662"
       y2="89.936691"
       gradientUnits="userSpaceOnUse">
      <stop
         style="stop-color:#a19a86;stop-opacity:1;"
         offset="0"
         id="stop2980-7" />
    </linearGradient>
    <linearGradient
       id="3-6"
       gradientTransform="matrix(0,0,0,0,162.56915,-367.44589)">
      <stop
         style="stop-color:#615b4c;stop-opacity:1;"
         offset="0"
         id="stop2994-3" />
    </linearGradient>
    <linearGradient
       inkscape:collect="always"
       xlink:href="#7"
       id="linearGradient1132"
       gradientUnits="userSpaceOnUse"
       gradientTransform="translate(81.006178,99.90678)"
       x1="54.811352"
       y1="32.815384"
       x2="91.85302"
       y2="32.815384" />
    <linearGradient
       id="4-2"
       gradientTransform="matrix(-3.5432529,0,0,4.0315577,-184.89835,-338.58989)"
       x1="-79.69751"
       y1="89.936691"
       x2="-64.180702"
       y2="89.936691"
       gradientUnits="userSpaceOnUse">
      <stop
         style="stop-color:#7e7867;stop-opacity:1;"
         offset="0"
         id="stop2597-5" />
    </linearGradient>
    <linearGradient
       id="6-4"
       gradientTransform="matrix(1.5385347,0,0,0.64996911,-86.896498,24.616077)"
       x1="-46.420033"
       y1="168.80734"
       x2="-41.591324"
       y2="168.80734"
       gradientUnits="userSpaceOnUse">
      <stop
         style="stop-color:#a19a86;stop-opacity:1;"
         offset="0"
         id="stop2980-6" />
    </linearGradient>
  </defs>
  <sodipodi:namedview
     units="in"
     inkscape:snap-bbox="true"
     inkscape:showpageshadow="false"
     showgrid="false"
     inkscape:document-rotation="0"
     inkscape:current-layer="layer1"
     inkscape:document-units="mm"
     inkscape:cy="61.050556"
     inkscape:cx="59.220347"
     inkscape:zoom="7.649398"
     inkscape:pageshadow="2"
     inkscape:pageopacity="0"
     borderopacity="1"
     bordercolor="#b7b7b7"
     pagecolor="#404040"
     id="base"
     inkscape:pagecheckerboard="0" />
  <metadata
     id="metadata5">
    <rdf:RDF>
      <cc:Work
         rdf:about="">
        <dc:format>image/svg+xml</dc:format>
        <dc:type
           rdf:resource="http://purl.org/dc/dcmitype/StillImage" />
        <dc:title />
      </cc:Work>
    </rdf:RDF>
  </metadata>
  <g
     inkscape:label="Background"
     id="layer2"
     inkscape:groupmode="layer"
     style="display:none"
     transform="translate(-135.81752,-114.20132)">
    <rect
       y="0"
       x="0"
       height="279.40002"
       width="215.90001"
       id="rect848"
       style="opacity:1;vector-effect:none;fill:#fcfcfc;fill-opacity:1;stroke:none;stroke-width:1.62428;stroke-linecap:butt;stroke-linejoin:miter;stroke-miterlimit:4;stroke-dasharray:none;stroke-dashoffset:0;stroke-opacity:1;paint-order:markers fill stroke" />
  </g>
  <g
     id="layer1"
     inkscape:groupmode="layer"
     inkscape:label="Layer 1"
     transform="translate(-135.81752,-114.20132)">
    <rect
       ry="2.0045214"
       y="114.20132"
       x="135.81752"
       height="37.041668"
       width="37.041668"
       id="rect1095"
       style="opacity:1;vector-effect:none;fill:url(#linearGradient1132);fill-opacity:1;stroke:none;stroke-width:0.861999;stroke-linecap:round;stroke-linejoin:bevel;stroke-miterlimit:4;stroke-dasharray:none;stroke-dashoffset:0;stroke-opacity:1;paint-order:normal" />
    <path
       style="fill:#413e35;fill-opacity:1;stroke:none;stroke-width:0.543999;stroke-linecap:round;stroke-linejoin:bevel;stop-color:#000000"
       d="m 157.79519,124.04504 a 3.5880715,4.0043941 0 0 0 -0.30142,1.60589 3.5880715,4.0043941 0 0 0 3.58814,4.00448 3.5880715,4.0043941 0 0 0 3.58814,-4.00448 3.5880715,4.0043941 0 0 0 -0.30202,-1.60589 z"
       id="path1478" />
    <circle
       style="fill:#413e35;fill-opacity:1;stroke:none;stroke-width:0.543999;stroke-linecap:round;stroke-linejoin:bevel;stop-color:#000000"
       id="path1505"
       cx="148.17577"
       cy="126.93517"
       r="2.7924514" />
    <path
       id="path1501"
       style="fill:#413e35;fill-opacity:1;stroke:none;stroke-width:0.543999;stroke-linecap:round;stroke-linejoin:bevel;stop-color:#000000"
       d="m 146.28412,128.37559 a 3.9464419,3.9464419 0 0 0 -0.44456,5.53887 l 2.54541,3.01607 a 3.9464419,3.9464419 0 0 0 0.47033,-5.56119 l -2.54512,-3.01572 a 3.9464419,3.9464419 0 0 0 -0.0261,0.0222 z" />
    <path
       id="rect1104"
       style="font-variation-settings:normal;opacity:1;vector-effect:none;fill:url(#4-2);fill-opacity:1;stroke:none;stroke-width:3.56689;stroke-linecap:round;stroke-linejoin:bevel;stroke-miterlimit:4;stroke-dasharray:none;stroke-dashoffset:0;stroke-opacity:1;paint-order:normal;stop-color:#000000;stop-opacity:1"
       d="M 70 23.994141 C 63.761265 23.994141 58.021514 26.055052 53.417969 29.53125 L 53.417969 29.533203 A 12.891555 12.891555 0 0 1 56.070312 37.363281 A 12.891555 12.891555 0 0 1 43.177734 50.255859 A 12.891555 12.891555 0 0 1 42.546875 50.236328 C 42.527911 50.650844 42.509766 51.064944 42.509766 51.484375 L 42.509766 59.0625 C 42.509766 74.291951 54.770549 86.552734 70 86.552734 C 83.601697 86.552734 94.826286 76.770202 97.072266 63.830078 L 94 60.189453 A 10.029387 10.029387 0 0 1 92.332031 50.056641 A 12.891555 12.891555 0 0 1 81.650391 37.361328 A 12.891555 12.891555 0 0 1 85.15625 28.527344 C 80.815766 25.66319 75.611293 23.994141 70 23.994141 z M 85.15625 28.527344 C 86.409717 29.354397 87.589988 30.281132 88.6875 31.296875 C 87.590065 30.280966 86.409589 29.354384 85.15625 28.527344 z M 88.6875 31.296875 C 89.044889 31.627637 89.393142 31.969155 89.732422 32.318359 C 89.393044 31.968953 89.044996 31.627814 88.6875 31.296875 z M 42.546875 50.236328 C 42.548834 50.193514 42.548627 50.150183 42.550781 50.107422 C 42.548664 50.150754 42.542939 50.19294 42.541016 50.236328 A 12.891555 12.891555 0 0 0 42.546875 50.236328 z M 42.550781 50.107422 C 42.580975 49.48942 42.627224 48.875921 42.697266 48.269531 C 42.627239 48.875703 42.581893 49.48997 42.550781 50.107422 z M 50.617188 31.958984 C 50.531914 32.043636 50.447439 32.129082 50.363281 32.214844 C 50.447268 32.12926 50.532089 32.043462 50.617188 31.958984 z M 89.808594 32.396484 C 90.107807 32.706905 90.399197 33.025342 90.683594 33.349609 C 90.399167 33.025207 90.10784 32.707027 89.808594 32.396484 z M 90.855469 33.548828 C 91.131463 33.86966 91.400993 34.195751 91.662109 34.529297 C 91.400981 34.195633 91.131476 33.869771 90.855469 33.548828 z M 91.753906 34.648438 C 92.039211 35.017025 92.315452 35.392127 92.582031 35.775391 C 92.315651 35.392332 92.038981 35.01684 91.753906 34.648438 z M 92.615234 35.820312 C 92.896733 36.226789 93.168045 36.642325 93.427734 37.064453 C 93.167843 36.641875 92.896968 36.227213 92.615234 35.820312 z M 93.427734 37.064453 C 93.95298 37.918247 94.432208 38.801955 94.863281 39.714844 C 94.43226 38.801881 93.952896 37.918355 93.427734 37.064453 z M 94.863281 39.714844 C 95.071245 40.155251 95.266269 40.603619 95.451172 41.056641 C 95.266264 40.603527 95.07125 40.155351 94.863281 39.714844 z M 95.513672 41.214844 C 95.672521 41.611066 95.822169 42.012749 95.962891 42.417969 C 95.822153 42.01265 95.672539 41.611173 95.513672 41.214844 z M 96.064453 42.714844 C 96.18641 43.079507 96.299291 43.446955 96.40625 43.818359 C 96.299322 43.447067 96.186367 43.079409 96.064453 42.714844 z M 96.5 44.152344 C 96.609299 44.55084 96.71106 44.953735 96.802734 45.359375 C 96.710955 44.953187 96.609448 44.551382 96.5 44.152344 z M 96.851562 45.572266 C 96.946825 46.00999 97.031211 46.451093 97.105469 46.896484 C 97.031271 46.451488 96.946727 46.009626 96.851562 45.572266 z M 97.136719 47.078125 C 97.216848 47.579437 97.285063 48.085528 97.337891 48.595703 L 97.341797 48.599609 C 97.288874 48.08775 97.217123 47.58109 97.136719 47.078125 z "
       transform="matrix(0.26458333,0,0,0.26458333,135.81752,114.20132)" />
    <path
       id="circle1446"
       style="fill:#413e35;fill-opacity:1;stroke:none;stroke-width:0.543999;stroke-linecap:round;stroke-linejoin:bevel;stop-color:#000000"
       d="m 149.95105,122.01478 c -1.67353,1.2637 -2.77847,3.23562 -2.87786,5.47822 a 3.4108906,3.4108906 0 0 0 0.16846,0.005 3.4108906,3.4108906 0 0 0 3.41116,-3.41117 3.4108906,3.4108906 0 0 0 -0.70176,-2.0717 z" />
    <ellipse
       style="font-variation-settings:normal;vector-effect:none;fill:#d3cdc3;fill-opacity:1;stroke:none;stroke-width:1.02701;stroke-linecap:round;stroke-linejoin:bevel;stroke-miterlimit:4;stroke-dasharray:none;stroke-dashoffset:0;stroke-opacity:1;paint-order:normal;stop-color:#000000"
       id="ellipse1106"
       cx="-157.87297"
       cy="129.37579"
       rx="2.0397928"
       ry="1.4861348"
       transform="scale(-1,1)" />
    <ellipse
       style="font-variation-settings:normal;vector-effect:none;fill:#413e35;fill-opacity:1;stroke:none;stroke-width:1.17629;stroke-linecap:round;stroke-linejoin:bevel;stroke-miterlimit:4;stroke-dasharray:none;stroke-dashoffset:0;stroke-opacity:1;paint-order:normal;stop-color:#000000"
       id="ellipse1108"
       cx="-157.87297"
       cy="129.37579"
       rx="0.88499999"
       ry="1.2625998"
       transform="scale(-1,1)" />
    <ellipse
       style="font-variation-settings:normal;vector-effect:none;fill:#d3cdc3;fill-opacity:1;stroke:none;stroke-width:1.02701;stroke-linecap:round;stroke-linejoin:bevel;stroke-miterlimit:4;stroke-dasharray:none;stroke-dashoffset:0;stroke-opacity:1;paint-order:normal;stop-color:#000000"
       id="ellipse1110"
       cx="-150.80377"
       cy="129.37579"
       rx="2.0397928"
       ry="1.4861348"
       transform="scale(-1,1)" />
    <ellipse
       style="font-variation-settings:normal;vector-effect:none;fill:#413e35;fill-opacity:1;stroke:none;stroke-width:1.17629;stroke-linecap:round;stroke-linejoin:bevel;stroke-miterlimit:4;stroke-dasharray:none;stroke-dashoffset:0;stroke-opacity:1;paint-order:normal;stop-color:#000000"
       id="ellipse1112"
       cx="-150.80377"
       cy="129.37579"
       rx="0.88499999"
       ry="1.2625998"
       transform="scale(-1,1)" />
    <rect
       style="fill:url(#6-4);stroke-width:3.72941;stroke-opacity:0.019685;paint-order:markers fill stroke;stop-color:#000000"
       id="rect1118"
       width="7.4291377"
       height="3.1385124"
       x="-158.31532"
       y="134.33565"
       transform="scale(-1,1)" />
    <path
       id="path1437"
       style="fill:#413e35;fill-opacity:1;stroke:none;stroke-width:0.543999;stroke-linecap:round;stroke-linejoin:bevel;stop-color:#000000"
       d="m 158.34847,121.74917 a 3.4108906,3.4108906 0 0 0 -0.92759,2.33732 3.4108906,3.4108906 0 0 0 3.41116,3.41116 3.4108906,3.4108906 0 0 0 0.76739,-0.0879 c -0.13181,-2.3719 -1.38984,-4.43264 -3.25096,-5.66063 z" />
    <path
       id="path1489"
       style="fill:#413e35;fill-opacity:1;stroke:none;stroke-width:0.543999;stroke-linecap:round;stroke-linejoin:bevel;stop-color:#000000"
       d="m 160.9873,126.40188 a 2.6536086,2.6536086 0 0 0 -0.29893,3.72436 l 1.71154,2.02802 a 2.6536086,2.6536086 0 0 0 0.31626,-3.73937 l -1.71135,-2.02779 a 2.6536086,2.6536086 0 0 0 -0.0175,0.0149 z" />
    <path
       id="rect1120"
       style="fill:#d3cdc3;stroke-width:19.4965;stroke-opacity:0.019685;paint-order:markers fill stroke;stop-color:#000000;fill-opacity:1"
       d="M 48.425781 18.533203 C 47.73084 18.533203 47.276568 19.055766 47.171875 19.763672 L 44.605469 37.117188 L 28.558594 37.117188 L 28.558594 40.269531 L 111.44141 40.269531 L 111.44141 37.117188 L 95.386719 37.117188 L 92.693359 19.763672 C 92.587155 19.078255 92.134508 18.533203 91.439453 18.533203 L 48.425781 18.533203 z "
       transform="matrix(0.26458333,0,0,0.26458333,135.81752,114.20132)" />
    <path
       id="path1124"
       style="font-variation-settings:normal;vector-effect:none;fill:#d3cdc3;fill-opacity:1;stroke:none;stroke-width:3.73259;stroke-linecap:round;stroke-linejoin:bevel;stroke-miterlimit:4;stroke-dasharray:none;stroke-dashoffset:0;stroke-opacity:1;paint-order:normal;stop-color:#000000"
       d="M 31.535156 69.296875 L 40.912109 95.177734 A 45.896546 50.259795 0 0 0 24.103516 134.02148 L 24.103516 140 L 115.89648 140 L 115.89648 134.02148 A 45.896546 50.259795 0 0 0 99.097656 95.150391 L 108.46484 69.296875 L 80.417969 69.296875 L 75.058594 84.089844 A 45.896546 50.259795 0 0 0 69.894531 83.761719 A 45.896546 50.259795 0 0 0 64.941406 84.089844 L 59.582031 69.296875 L 31.535156 69.296875 z "
       transform="matrix(0.26458333,0,0,0.26458333,135.81752,114.20132)" />
  </g>
  <inkscape:templateinfo>
    <inkscape:name>Dark Background</inkscape:name>
    <inkscape:shortdesc>8.5x11</inkscape:shortdesc>
    <inkscape:date>2020-07-09</inkscape:date>
  </inkscape:templateinfo>
</svg>
