<?xml version="1.0" encoding="UTF-8" standalone="no"?>
<svg
   inkscape:version="1.1 (c68e22c387, 2021-05-23)"
   id="svg8"
   version="1.1"
   viewBox="0 0 37.041668 37.04167"
   height="1.4583334in"
   width="1.4583334in"
   sodipodi:docname="player-portrait-17.svg"
   inkscape:export-filename="C:\Users\gabyb\OneDrive - UW\Documents\DIY Files\Secret Hitler SVG\export\player-portrait-1.png"
   inkscape:export-xdpi="300"
   inkscape:export-ydpi="300"
   xmlns:inkscape="http://www.inkscape.org/namespaces/inkscape"
   xmlns:sodipodi="http://sodipodi.sourceforge.net/DTD/sodipodi-0.dtd"
   xmlns:xlink="http://www.w3.org/1999/xlink"
   xmlns="http://www.w3.org/2000/svg"
   xmlns:svg="http://www.w3.org/2000/svg"
   xmlns:rdf="http://www.w3.org/1999/02/22-rdf-syntax-ns#"
   xmlns:cc="http://creativecommons.org/ns#"
   xmlns:dc="http://purl.org/dc/elements/1.1/">
  <defs
     id="defs2">
    <linearGradient
       id="7"
       gradientTransform="matrix(0,0,0,0,-192.31873,38.641632)">
      <stop
         style="stop-color:#b3a995;stop-opacity:1;"
         offset="0"
         id="stop2624" />
    </linearGradient>
    <linearGradient
       id="6"
       gradientTransform="matrix(2.9598334,0,0,4.6482784,-971.19374,-788.49204)">
      <stop
         style="stop-color:#a19a86;stop-opacity:1;"
         offset="0"
         id="stop2980" />
    </linearGradient>
    <linearGradient
       id="8"
       gradientTransform="matrix(0,0,0,0,20.9488,-188.21513)">
      <stop
         style="stop-color:#c9c2b5;stop-opacity:1;"
         offset="0"
         id="stop2972" />
    </linearGradient>
    <linearGradient
       id="9"
       gradientTransform="matrix(0,0,0,0,415.13206,238.92675)"
       inkscape:swatch="solid">
      <stop
         style="stop-color:#d3cdc3;stop-opacity:1;"
         offset="0"
         id="stop2966" />
    </linearGradient>
    <linearGradient
       id="4"
       gradientTransform="scale(1.3369113,0.74799279)"
       x1="41.05265"
       y1="37.347988"
       x2="59.21907"
       y2="37.347988"
       gradientUnits="userSpaceOnUse">
      <stop
         style="stop-color:#7e7867;stop-opacity:1;"
         offset="0"
         id="stop2597" />
    </linearGradient>
    <linearGradient
       id="2"
       x1="-86.010757"
       y1="-24.380556"
       x2="-66.571861"
       y2="-24.380556"
       gradientUnits="userSpaceOnUse">
      <stop
         style="stop-color:#4f4b41;stop-opacity:1;"
         offset="0"
         id="stop3000" />
    </linearGradient>
    <linearGradient
       id="6-0"
       x1="-86.010757"
       y1="-24.380556"
       x2="-78.779861"
       y2="-24.380556"
       gradientUnits="userSpaceOnUse">
      <stop
         style="stop-color:#a19a86;stop-opacity:1;"
         offset="0"
         id="stop2980-3" />
    </linearGradient>
    <linearGradient
       id="2-4"
       gradientTransform="matrix(0,0,0,0,-123.69291,-377.74216)">
      <stop
         style="stop-color:#4f4b41;stop-opacity:1;"
         offset="0"
         id="stop3000-6" />
    </linearGradient>
    <linearGradient
       id="4-6"
       gradientTransform="matrix(0,0,0,0,-114.96548,-519.45649)">
      <stop
         style="stop-color:#7e7867;stop-opacity:1;"
         offset="0"
         id="stop2597-7" />
    </linearGradient>
    <linearGradient
       id="4-8"
       gradientTransform="matrix(1.3369116,0,0,0.7479926,-20.148415,114.34856)"
       x1="104.70857"
       y1="37.48616"
       x2="122.87498"
       y2="37.48616"
       gradientUnits="userSpaceOnUse">
      <stop
         style="stop-color:#7e7867;stop-opacity:1;"
         offset="0"
         id="stop2597-8" />
    </linearGradient>
    <linearGradient
       id="7-8"
       x1="177.41472"
       y1="4.9445109"
       x2="214.45639"
       y2="4.9445109"
       gradientUnits="userSpaceOnUse"
       gradientTransform="translate(-36.494285,139.49333)">
      <stop
         style="stop-color:#b3a995;stop-opacity:1;"
         offset="0"
         id="stop2624-3" />
    </linearGradient>
    <linearGradient
       id="1"
       gradientTransform="matrix(0,0,0,0,138.26132,-799.29972)">
      <stop
         style="stop-color:#413e35;stop-opacity:1;"
         offset="0"
         id="stop3006" />
    </linearGradient>
    <linearGradient
       id="4-62"
       gradientTransform="matrix(1.3369111,0,0,0.74799287,107.2023,99.039514)"
       x1="41.092491"
       y1="94.595772"
       x2="59.258911"
       y2="94.595772"
       gradientUnits="userSpaceOnUse">
      <stop
         style="stop-color:#7e7867;stop-opacity:1;"
         offset="0"
         id="stop2597-82" />
    </linearGradient>
    <linearGradient
       id="8-7"
       x1="64.599564"
       y1="76.484734"
       x2="65.922211"
       y2="76.484734"
       gradientUnits="userSpaceOnUse"
       gradientTransform="translate(107.2023,99.039514)">
      <stop
         style="stop-color:#c9c2b5;stop-opacity:1;"
         offset="0"
         id="stop2972-5" />
    </linearGradient>
    <linearGradient
       id="8-0"
       x1="103.96806"
       y1="48.521393"
       x2="115.8477"
       y2="48.521393"
       gradientUnits="userSpaceOnUse"
       gradientTransform="translate(72.273042,90.42636)">
      <stop
         style="stop-color:#c9c2b5;stop-opacity:1;"
         offset="0"
         id="stop2972-6" />
    </linearGradient>
    <linearGradient
       id="4-1"
       gradientTransform="matrix(1.3369111,0,0,0.74799287,56.540262,111.57045)"
       x1="105.044"
       y1="93.978508"
       x2="123.21043"
       y2="93.978508"
       gradientUnits="userSpaceOnUse">
      <stop
         style="stop-color:#7e7867;stop-opacity:1;"
         offset="0"
         id="stop2597-0" />
    </linearGradient>
    <clipPath
       clipPathUnits="userSpaceOnUse"
       id="clipPath1380">
      <rect
         ry="2.0045214"
         y="52.25993"
         x="135.90947"
         height="37.041668"
         width="37.041668"
         id="rect1382"
         style="opacity:1;vector-effect:none;fill:url(#linearGradient1384);fill-opacity:1;stroke:none;stroke-width:0.861999;stroke-linecap:round;stroke-linejoin:bevel;stroke-miterlimit:4;stroke-dasharray:none;stroke-dashoffset:0;stroke-opacity:1;paint-order:normal" />
    </clipPath>
    <linearGradient
       id="3"
       gradientTransform="scale(3.9615237,0.25242813)"
       x1="55.817123"
       y1="301.75909"
       x2="57.486427"
       y2="301.75909"
       gradientUnits="userSpaceOnUse">
      <stop
         style="stop-color:#615b4c;stop-opacity:1;"
         offset="0"
         id="stop2994" />
    </linearGradient>
    <linearGradient
       id="3-0"
       gradientTransform="matrix(1.8881148,1.6826517e-8,0,0.52962881,-10.467449,97.041167)"
       x1="102.55329"
       y1="60.999062"
       x2="107.57448"
       y2="60.999062"
       gradientUnits="userSpaceOnUse">
      <stop
         style="stop-color:#615b4c;stop-opacity:1;"
         offset="0"
         id="stop2994-7" />
    </linearGradient>
    <linearGradient
       id="6-2"
       gradientTransform="matrix(0.93748565,0,0,1.066683,150.24989,46.36545)"
       x1="18.737856"
       y1="89.936691"
       x2="34.254662"
       y2="89.936691"
       gradientUnits="userSpaceOnUse">
      <stop
         style="stop-color:#a19a86;stop-opacity:1;"
         offset="0"
         id="stop2980-7" />
    </linearGradient>
    <linearGradient
       id="3-6"
       gradientTransform="matrix(0,0,0,0,162.56915,-367.44589)">
      <stop
         style="stop-color:#615b4c;stop-opacity:1;"
         offset="0"
         id="stop2994-3" />
    </linearGradient>
    <linearGradient
       id="4-2"
       gradientTransform="matrix(0.93748565,0,0,1.066683,-86.896498,24.616077)"
       x1="-79.69751"
       y1="89.936691"
       x2="-64.180702"
       y2="89.936691"
       gradientUnits="userSpaceOnUse">
      <stop
         style="stop-color:#7e7867;stop-opacity:1;"
         offset="0"
         id="stop2597-5" />
    </linearGradient>
    <linearGradient
       id="6-4"
       gradientTransform="matrix(1.5385347,0,0,0.64996911,-86.896498,24.616077)"
       x1="-46.420033"
       y1="168.80734"
       x2="-41.591324"
       y2="168.80734"
       gradientUnits="userSpaceOnUse">
      <stop
         style="stop-color:#a19a86;stop-opacity:1;"
         offset="0"
         id="stop2980-6" />
    </linearGradient>
    <linearGradient
       id="4-4"
       gradientTransform="matrix(1.3369115,0,0,0.74799266,29.997444,27.727463)"
       x1="72.604904"
       y1="150.68745"
       x2="90.771317"
       y2="150.68745"
       gradientUnits="userSpaceOnUse">
      <stop
         style="stop-color:#7e7867;stop-opacity:1;"
         offset="0"
         id="stop2597-74" />
    </linearGradient>
    <linearGradient
       id="4-27"
       x1="186.42728"
       y1="121.74632"
       x2="189.98836"
       y2="121.74632"
       gradientUnits="userSpaceOnUse"
       gradientTransform="translate(-40.83163,41.197573)">
      <stop
         style="stop-color:#7e7867;stop-opacity:1;"
         offset="0"
         id="stop2597-6" />
    </linearGradient>
    <linearGradient
       id="7-88"
       gradientTransform="matrix(0,0,0,0,63.047107,61.377035)"
       inkscape:swatch="solid">
      <stop
         style="stop-color:#b3a995;stop-opacity:1;"
         offset="0"
         id="stop2624-9" />
    </linearGradient>
    <linearGradient
       id="4-3"
       gradientTransform="matrix(0,0,0,0,140.57575,-466.06798)"
       inkscape:swatch="solid">
      <stop
         style="stop-color:#7e7867;stop-opacity:1;"
         offset="0"
         id="stop2597-3" />
    </linearGradient>
    <linearGradient
       id="5"
       gradientTransform="matrix(0,0,0,0,420.4466,282.85975)"
       inkscape:swatch="solid">
      <stop
         style="stop-color:#968c77;stop-opacity:1;"
         offset="0"
         id="stop2986" />
    </linearGradient>
    <linearGradient
       id="3-7"
       gradientTransform="matrix(0,0,0,0,-307.68469,-339.34348)"
       inkscape:swatch="solid">
      <stop
         style="stop-color:#615b4c;stop-opacity:1;"
         offset="0"
         id="stop2994-8" />
    </linearGradient>
    <linearGradient
       id="6-04"
       gradientTransform="matrix(2.9598334,0,0,4.6482783,-425.80194,-693.96608)"
       inkscape:swatch="solid">
      <stop
         style="stop-color:#a19a86;stop-opacity:1;"
         offset="0"
         id="stop2980-4" />
    </linearGradient>
    <linearGradient
       id="8-01"
       gradientTransform="matrix(0,0,0,0,195.96202,-177.20379)"
       inkscape:swatch="solid">
      <stop
         style="stop-color:#c9c2b5;stop-opacity:1;"
         offset="0"
         id="stop2972-2" />
    </linearGradient>
    <linearGradient
       inkscape:collect="always"
       xlink:href="#7-88"
       id="linearGradient1506"
       gradientUnits="userSpaceOnUse"
       gradientTransform="translate(161.4428,146.8299)"
       x1="54.811352"
       y1="32.815384"
       x2="91.85302"
       y2="32.815384" />
    <linearGradient
       id="1-8"
       gradientTransform="matrix(0,0,0,0,-539.25412,706.42386)"
       inkscape:swatch="solid">
      <stop
         style="stop-color:#413e35;stop-opacity:1;"
         offset="0"
         id="stop3006-9" />
    </linearGradient>
    <linearGradient
       id="2-6"
       gradientTransform="matrix(0,0,0,0,533.89086,-831.94559)"
       inkscape:swatch="solid">
      <stop
         style="stop-color:#4f4b41;stop-opacity:1;"
         offset="0"
         id="stop3000-9" />
    </linearGradient>
  </defs>
  <sodipodi:namedview
     units="in"
     inkscape:snap-bbox="true"
     inkscape:showpageshadow="false"
     showgrid="false"
     inkscape:document-rotation="0"
     inkscape:current-layer="layer1"
     inkscape:document-units="mm"
     inkscape:cy="111.78315"
     inkscape:cx="63.356547"
     inkscape:zoom="5.2244009"
     inkscape:pageshadow="2"
     inkscape:pageopacity="0"
     borderopacity="1"
     bordercolor="#b7b7b7"
     pagecolor="#404040"
     id="base"
     inkscape:pagecheckerboard="0" />
  <metadata
     id="metadata5">
    <rdf:RDF>
      <cc:Work
         rdf:about="">
        <dc:format>image/svg+xml</dc:format>
        <dc:type
           rdf:resource="http://purl.org/dc/dcmitype/StillImage" />
        <dc:title />
      </cc:Work>
    </rdf:RDF>
  </metadata>
  <g
     id="layer1"
     inkscape:groupmode="layer"
     inkscape:label="Layer 1"
     transform="translate(-216.25415,-161.12444)">
    <rect
       ry="2.0045214"
       y="161.12444"
       x="216.25415"
       height="37.041668"
       width="37.041668"
       id="rect1429"
       style="opacity:1;vector-effect:none;fill:url(#linearGradient1506);fill-opacity:1;stroke:none;stroke-width:0.861999;stroke-linecap:round;stroke-linejoin:bevel;stroke-miterlimit:4;stroke-dasharray:none;stroke-dashoffset:0;stroke-opacity:1;paint-order:normal" />
    <circle
       style="fill:#413e35;stroke-width:0.543999;stroke-linecap:round;stroke-linejoin:bevel;stop-color:#000000;fill-opacity:1"
       id="circle1510"
       cx="227.16655"
       cy="179.49048"
       r="2.3261881" />
    <circle
       style="fill:#413e35;stroke-width:0.543999;stroke-linecap:round;stroke-linejoin:bevel;stop-color:#000000;fill-opacity:1"
       id="circle1512"
       cx="-242.68983"
       cy="179.27507"
       r="2.3261881"
       transform="scale(-1,1)" />
    <path
       id="path1514"
       style="font-variation-settings:normal;opacity:1;vector-effect:none;fill:#413e35;fill-opacity:1;stroke:none;stroke-width:0.94374;stroke-linecap:round;stroke-linejoin:bevel;stroke-miterlimit:4;stroke-dasharray:none;stroke-dashoffset:0;stroke-opacity:1;paint-order:normal;stop-color:#000000;stop-opacity:1"
       d="m 227.25309,171.80145 c -0.32828,0.88555 -0.50849,1.84434 -0.50849,2.84685 v 2.24586 c 0,4.51447 3.63438,8.14886 8.14885,8.14886 4.51448,0 8.14885,-3.63439 8.14885,-8.14886 v -2.24586 c 0,-1.00251 -0.18021,-1.9613 -0.50848,-2.84685 z"
       sodipodi:nodetypes="cssssscc" />
    <circle
       style="fill:#413e35;stroke-width:0.543999;stroke-linecap:round;stroke-linejoin:bevel;stop-color:#000000;fill-opacity:1"
       id="circle1516"
       cx="-242.79703"
       cy="176.81238"
       r="1.6338702"
       transform="scale(-1,1)" />
    <path
       id="rect1518"
       style="font-variation-settings:normal;opacity:1;vector-effect:none;fill:#615b4c;fill-opacity:1;stroke:none;stroke-width:3.56689;stroke-linecap:round;stroke-linejoin:bevel;stroke-miterlimit:4;stroke-dasharray:none;stroke-dashoffset:0;stroke-opacity:1;paint-order:normal;stop-color:#000000;stop-opacity:1"
       d="M 70.447266 24.080078 C 70.645111 24.080078 70.842375 24.083406 71.039062 24.087891 C 71.132249 24.089837 71.225409 24.092841 71.318359 24.095703 C 71.781595 24.109969 72.242164 24.135178 72.699219 24.171875 C 71.956548 24.11219 71.205816 24.080078 70.447266 24.080078 z M 70.447266 24.080078 C 69.689377 24.080078 68.939304 24.112293 68.197266 24.171875 C 68.654324 24.135178 69.114889 24.109969 69.578125 24.095703 C 69.670537 24.092857 69.762824 24.089831 69.855469 24.087891 C 70.052389 24.083396 70.249185 24.080078 70.447266 24.080078 z M 68.197266 24.171875 C 65.911799 24.355386 63.707972 24.81513 61.617188 25.519531 C 63.707879 24.815386 65.911975 24.355359 68.197266 24.171875 z M 61.617188 25.519531 C 60.362892 25.942113 59.149339 26.452184 57.984375 27.042969 C 59.149461 26.452294 60.362773 25.942018 61.617188 25.519531 z M 57.984375 27.042969 C 57.595885 27.239982 57.213422 27.445508 56.835938 27.660156 C 57.213303 27.445647 57.596013 27.23986 57.984375 27.042969 z M 56.835938 27.660156 C 56.458771 27.874624 56.086348 28.098541 55.720703 28.330078 C 56.086537 28.098485 56.458572 27.874666 56.835938 27.660156 z M 55.720703 28.330078 C 55.354534 28.561947 54.994703 28.80233 54.640625 29.050781 C 54.994392 28.80264 55.354869 28.561671 55.720703 28.330078 z M 54.640625 29.050781 C 54.296091 29.292536 53.957584 29.541874 53.625 29.798828 C 53.957638 29.541925 54.296037 29.292485 54.640625 29.050781 z M 72.699219 24.171875 C 74.984491 24.355359 77.188698 24.815386 79.279297 25.519531 C 77.189105 24.815329 74.983992 24.355491 72.699219 24.171875 z M 79.279297 25.519531 C 80.527512 25.939949 81.734755 26.448159 82.894531 27.035156 C 81.734398 26.447766 80.527924 25.940203 79.279297 25.519531 z M 82.919922 27.046875 C 83.305587 27.242567 83.685734 27.447083 84.060547 27.660156 C 83.686036 27.447199 83.305268 27.242477 82.919922 27.046875 z M 84.060547 27.660156 C 84.431766 27.871186 84.798142 28.090791 85.158203 28.318359 C 84.797862 28.090539 84.432063 27.87141 84.060547 27.660156 z M 85.183594 28.335938 C 85.532681 28.55712 85.876744 28.78717 86.214844 29.023438 C 85.87644 28.786861 85.533007 28.557399 85.183594 28.335938 z M 70.447266 28.728516 L 68.876953 30.753906 C 69.293004 31.521906 69.008121 32.474575 68.240234 32.890625 L 42.957031 53.630859 L 42.957031 59.146484 C 42.957031 74.375936 55.217814 86.636719 70.447266 86.636719 C 85.676717 86.636719 97.9375 74.375936 97.9375 59.146484 L 97.9375 53.630859 L 72.65625 32.890625 C 71.888363 32.474575 71.603481 31.521906 72.019531 30.753906 L 70.447266 28.728516 z M 86.28125 29.070312 C 86.622087 29.309999 86.956044 29.555971 87.285156 29.810547 C 86.956576 29.556322 86.621517 29.309695 86.28125 29.070312 z M 87.302734 29.824219 C 87.633175 30.080252 87.957279 30.344666 88.275391 30.615234 C 87.957252 30.344581 87.633204 30.080334 87.302734 29.824219 z M 53.583984 29.830078 C 53.256288 30.084238 52.934703 30.346772 52.619141 30.615234 C 52.934805 30.346772 53.256181 30.084232 53.583984 29.830078 z M 52.578125 30.648438 C 52.272235 30.909683 51.973677 31.178857 51.679688 31.453125 C 51.973819 31.178801 52.272085 30.909729 52.578125 30.648438 z M 88.316406 30.650391 C 88.606686 30.898272 88.892303 31.15249 89.171875 31.412109 C 88.892096 31.152226 88.606909 30.898518 88.316406 30.650391 z M 51.595703 31.529297 C 51.294562 31.812565 51.000939 32.101908 50.712891 32.398438 C 51.000588 32.102383 51.294949 31.812126 51.595703 31.529297 z M 89.335938 31.564453 C 89.614392 31.827286 89.887078 32.096884 90.154297 32.371094 C 89.886847 32.096554 89.614643 31.827596 89.335938 31.564453 z M 50.707031 32.404297 C 50.417138 32.702906 50.133562 33.008747 49.857422 33.320312 C 50.133813 33.00856 50.416865 32.703072 50.707031 32.404297 z M 90.212891 32.429688 C 90.49462 32.720536 90.768408 33.017202 91.037109 33.320312 C 90.768811 33.017595 90.494178 32.720181 90.212891 32.429688 z M 49.804688 33.378906 C 49.560295 33.656247 49.323012 33.939392 49.089844 34.226562 C 49.322964 33.939541 49.560349 33.656103 49.804688 33.378906 z M 91.089844 33.378906 C 91.349141 33.673105 91.601006 33.974043 91.847656 34.279297 C 91.601187 33.974233 91.348941 33.672933 91.089844 33.378906 z M 91.941406 34.394531 C 92.173831 34.685384 92.400449 34.980848 92.621094 35.28125 C 92.400287 34.980583 92.17401 34.685637 91.941406 34.394531 z M 48.919922 34.4375 C 48.686366 34.731012 48.457913 35.02885 48.236328 35.332031 C 48.458205 35.028504 48.686043 34.731333 48.919922 34.4375 z M 48.1875 35.398438 C 47.969364 35.698789 47.758808 36.005022 47.552734 36.314453 C 47.758591 36.005432 47.969609 35.698399 48.1875 35.398438 z M 92.744141 35.449219 C 92.961004 35.749217 93.172104 36.054271 93.376953 36.363281 C 93.172266 36.054493 92.960822 35.749012 92.744141 35.449219 z M 93.46875 36.503906 C 93.680478 36.827583 93.885755 37.155231 94.083984 37.488281 C 93.885804 37.155305 93.68042 36.827517 93.46875 36.503906 z M 47.388672 36.5625 C 47.194387 36.861203 47.005091 37.164055 46.822266 37.470703 C 47.005297 37.163764 47.194156 36.861476 47.388672 36.5625 z M 94.136719 37.578125 C 94.33432 37.913013 94.525384 38.253756 94.708984 38.597656 C 94.525071 38.253106 94.334682 37.913634 94.136719 37.578125 z M 46.740234 37.609375 C 46.541738 37.946813 46.350311 38.288211 46.166016 38.634766 C 46.350204 38.288503 46.541864 37.946532 46.740234 37.609375 z M 46.119141 38.722656 C 45.94158 39.059505 45.771229 39.401065 45.607422 39.746094 C 45.771287 39.401027 45.941514 39.059537 46.119141 38.722656 z M 94.792969 38.755859 C 94.965519 39.084221 95.131525 39.415833 95.291016 39.751953 C 95.131646 39.416056 94.965377 39.084013 94.792969 38.755859 z M 95.380859 39.943359 C 95.532511 40.269459 95.677305 40.598664 95.816406 40.931641 C 95.677353 40.598784 95.532452 40.269347 95.380859 39.943359 z M 45.494141 39.986328 C 45.350863 40.295845 45.212067 40.608136 45.080078 40.923828 C 45.212185 40.607896 45.350726 40.296072 45.494141 39.986328 z M 95.916016 41.175781 C 96.055919 41.519992 96.190183 41.867659 96.316406 42.21875 C 96.190179 41.867684 96.055919 41.519972 95.916016 41.175781 z M 44.958984 41.224609 C 44.833274 41.535611 44.712222 41.849411 44.597656 42.166016 C 44.712229 41.849427 44.833265 41.535592 44.958984 41.224609 z M 96.363281 42.349609 C 96.491003 42.710629 96.611675 43.075489 96.724609 43.443359 C 96.611517 43.074938 96.491202 42.711164 96.363281 42.349609 z M 44.515625 42.400391 C 44.394974 42.743533 44.279187 43.08819 44.171875 43.4375 C 44.279088 43.0886 44.395101 42.743133 44.515625 42.400391 z M 96.789062 43.660156 C 96.894417 44.013741 96.994527 44.369025 97.085938 44.728516 C 96.994566 44.369203 96.894363 44.013573 96.789062 43.660156 z M 44.091797 43.710938 C 43.992545 44.046422 43.897263 44.383827 43.810547 44.724609 C 43.897334 44.383578 43.992453 44.046659 44.091797 43.710938 z M 97.136719 44.941406 C 97.227437 45.310501 97.312951 45.68175 97.388672 46.056641 C 97.31296 45.681856 97.227419 45.310402 97.136719 44.941406 z M 43.746094 44.988281 C 43.659861 45.341804 43.578347 45.697819 43.505859 46.056641 C 43.578392 45.697588 43.659796 45.342023 43.746094 44.988281 z M 43.470703 46.236328 C 43.394589 46.626454 43.327108 47.020068 43.267578 47.416016 C 43.32713 47.019774 43.394539 46.626735 43.470703 46.236328 z M 97.423828 46.236328 C 97.49998 46.626735 97.567411 47.019774 97.626953 47.416016 C 97.567423 47.020068 97.499943 46.626454 97.423828 46.236328 z M 43.253906 47.519531 C 43.194139 47.927543 43.141377 48.338208 43.099609 48.751953 C 43.141351 48.338217 43.194163 47.927529 43.253906 47.519531 z M 97.640625 47.519531 C 97.702817 47.94432 97.758109 48.371734 97.800781 48.802734 C 97.758085 48.371903 97.702826 47.944162 97.640625 47.519531 z M 97.800781 48.802734 C 97.845787 49.257312 97.879573 49.714815 97.902344 50.175781 C 97.879529 49.714502 97.845862 49.257622 97.800781 48.802734 z M 97.902344 50.175781 C 97.925083 50.636101 97.937468 51.100248 97.9375 51.566406 C 97.937436 51.100338 97.925107 50.63602 97.902344 50.175781 z M 43.087891 48.886719 C 43.047829 49.303828 43.015506 49.722066 42.994141 50.144531 C 43.015473 49.722362 43.047885 49.303535 43.087891 48.886719 z M 42.990234 50.248047 C 42.969771 50.684556 42.957092 51.124673 42.957031 51.566406 C 42.957062 51.124474 42.96978 50.684745 42.990234 50.248047 z "
       transform="matrix(0.26458333,0,0,0.26458333,216.25415,161.12444)" />
    <circle
       style="fill:#413e35;stroke-width:0.543999;stroke-linecap:round;stroke-linejoin:bevel;stop-color:#000000;fill-opacity:1"
       id="circle1520"
       cx="-242.36932"
       cy="179.498"
       r="1.6338702"
       transform="scale(-1,1)" />
    <circle
       style="fill:#413e35;stroke-width:0.543999;stroke-linecap:round;stroke-linejoin:bevel;stop-color:#000000;fill-opacity:1"
       id="circle1522"
       cx="227.85912"
       cy="180.39876"
       r="1.6338702" />
    <ellipse
       style="font-variation-settings:normal;vector-effect:none;fill:#d3cdc3;fill-opacity:1;stroke:none;stroke-width:1.02701;stroke-linecap:round;stroke-linejoin:bevel;stroke-miterlimit:4;stroke-dasharray:none;stroke-dashoffset:0;stroke-opacity:1;paint-order:normal;stop-color:#000000"
       id="ellipse1524"
       cx="-238.42802"
       cy="176.32127"
       rx="2.0397928"
       ry="1.4861348"
       transform="scale(-1,1)" />
    <ellipse
       style="font-variation-settings:normal;vector-effect:none;fill:#d3cdc3;fill-opacity:1;stroke:none;stroke-width:1.02701;stroke-linecap:round;stroke-linejoin:bevel;stroke-miterlimit:4;stroke-dasharray:none;stroke-dashoffset:0;stroke-opacity:1;paint-order:normal;stop-color:#000000"
       id="ellipse1528"
       cx="-231.35884"
       cy="176.32127"
       rx="2.0397928"
       ry="1.4861348"
       transform="scale(-1,1)" />
    <path
       id="ellipse1526"
       style="font-variation-settings:normal;vector-effect:none;fill:#413e35;fill-opacity:1;stroke:none;stroke-width:1.17629;stroke-linecap:round;stroke-linejoin:bevel;stroke-miterlimit:4;stroke-dasharray:none;stroke-dashoffset:0;stroke-opacity:1;paint-order:normal;stop-color:#000000"
       d="m 231.35891,175.78327 a 0.885,1.2625997 0 0 0 -0.88521,1.26245 0.885,1.2625997 0 0 0 0.12867,0.65526 2.0397927,1.4861346 0 0 0 0.75654,0.10646 2.0397927,1.4861346 0 0 0 0.75551,-0.10594 0.885,1.2625997 0 0 0 0.12919,-0.65578 0.885,1.2625997 0 0 0 -0.8847,-1.26245 z m 7.06934,0 a 0.885,1.2625997 0 0 0 -0.88522,1.26245 0.885,1.2625997 0 0 0 0.15761,0.71934 2.0397927,1.4861346 0 0 0 0.72761,0.0977 2.0397927,1.4861346 0 0 0 0.72709,-0.0982 0.885,1.2625997 0 0 0 0.15761,-0.71882 0.885,1.2625997 0 0 0 -0.8847,-1.26245 z" />
    <path
       id="path1532"
       style="fill:#413e35;stroke-width:5.324;stroke-opacity:0.019685;paint-order:markers fill stroke;stop-color:#000000;fill-opacity:1"
       inkscape:transform-center-x="-4.9659753"
       inkscape:transform-center-y="-1.7877563"
       d="m 234.89338,167.49572 c 0.30821,0 0.61108,0.021 0.90899,0.0579 l -1.32476,1.70759 c 0.11008,0.2032 0.0347,0.45526 -0.16847,0.56534 l -6.68921,5.48783 v -0.5457 c 0,-4.02946 3.24399,-7.27294 7.27345,-7.27294 z"
       sodipodi:nodetypes="sccccsss" />
    <path
       id="path1534"
       style="fill:#413e35;stroke-width:5.324;stroke-opacity:0.019685;paint-order:markers fill stroke;stop-color:#000000;fill-opacity:1"
       inkscape:transform-center-x="4.9659753"
       inkscape:transform-center-y="-1.7877563"
       d="m 234.8934,167.49572 c -0.30821,0 -0.61108,0.021 -0.90899,0.0579 l 1.32476,1.70759 c -0.11008,0.2032 -0.0347,0.45526 0.16847,0.56534 l 6.68921,5.48783 v -0.5457 c 0,-4.02946 -3.24399,-7.27294 -7.27345,-7.27294 z"
       sodipodi:nodetypes="sccccsss" />
    <rect
       style="fill:#968c77;stroke-width:5.15845;stroke-opacity:0.019685;paint-order:markers fill stroke;stop-color:#000000;fill-opacity:1"
       id="rect1482"
       width="21.929863"
       height="0.83428818"
       x="223.81004"
       y="170.94479"
       ry="0" />
    <rect
       style="fill:none;stroke:#413e35;stroke-width:0.543999;stroke-linecap:round;stroke-linejoin:bevel;stop-color:#000000;stroke-opacity:1"
       id="rect1536"
       width="6.2593837"
       height="4.1124773"
       x="228.01778"
       y="174.24535"
       ry="2.0562387" />
    <path
       id="path1484"
       style="fill:#968c77;stroke-width:4.93715;stroke-opacity:0.019685;paint-order:markers fill stroke;stop-color:#000000;fill-opacity:1"
       d="m 229.10273,166.02809 h 11.38026 c 0.18387,0 0.30422,0.13838 0.33192,0.32569 l 0.70847,4.78945 c 0.0326,0.22007 -0.16588,0.4023 -0.37194,0.4023 h -12.75258 c -0.20607,0 -0.4061,-0.18251 -0.37196,-0.4023 l 0.74391,-4.78945 c 0.0281,-0.18136 0.14802,-0.32569 0.33192,-0.32569 z"
       sodipodi:nodetypes="sssssssss" />
    <rect
       style="fill:none;stroke:#413e35;stroke-width:0.543999;stroke-linecap:round;stroke-linejoin:bevel;stop-color:#000000;stroke-opacity:1"
       id="rect1538"
       width="6.2593837"
       height="4.1124773"
       x="235.42642"
       y="174.24535"
       ry="2.0562387" />
    <path
       style="fill:none;stroke:#413e35;stroke-width:0.543999;stroke-linecap:round;stroke-linejoin:bevel;stop-color:#000000;stroke-opacity:1"
       d="m 234.34792,176.28052 1.07386,-0.0145"
       id="path1540" />
    <rect
       style="fill:#4f4b41;stroke-width:6.42718;stroke-opacity:0.019685;paint-order:markers fill stroke;stop-color:#000000;fill-opacity:1"
       id="rect1490"
       width="3.9958601"
       height="16.020945"
       x="232.74979"
       y="182.14258" />
    <path
       id="path1492"
       style="font-variation-settings:normal;vector-effect:none;fill:#413e35;fill-opacity:1;stroke:none;stroke-width:0.987581;stroke-linecap:round;stroke-linejoin:bevel;stroke-miterlimit:4;stroke-dasharray:none;stroke-dashoffset:0;stroke-opacity:1;paint-order:normal;stop-color:#000000"
       d="m 232.03568,186.95951 c -4.02946,0 -7.27346,3.24399 -7.27346,7.27345 v 2.00453 c 0,0.66841 0.0911,1.31462 0.25838,1.92857 h 14.03016 c 0.16728,-0.61393 0.25838,-1.2602 0.25838,-1.92857 v -2.00453 c 0,-4.02946 -3.244,-7.27345 -7.27346,-7.27345 z" />
    <ellipse
       style="font-variation-settings:normal;vector-effect:none;fill:#d3cdc3;fill-opacity:1;stroke:none;stroke-width:1.02701;stroke-linecap:round;stroke-linejoin:bevel;stroke-miterlimit:4;stroke-dasharray:none;stroke-dashoffset:0;stroke-opacity:1;paint-order:normal;stop-color:#000000"
       id="ellipse1494"
       cx="235.44144"
       cy="194.40268"
       rx="2.0397928"
       ry="1.4861348" />
    <ellipse
       style="font-variation-settings:normal;vector-effect:none;fill:#413e35;fill-opacity:1;stroke:none;stroke-width:1.17629;stroke-linecap:round;stroke-linejoin:bevel;stroke-miterlimit:4;stroke-dasharray:none;stroke-dashoffset:0;stroke-opacity:1;paint-order:normal;stop-color:#000000"
       id="ellipse1496"
       cx="235.44144"
       cy="193.75487"
       rx="0.88499999"
       ry="1.2625998" />
    <path
       id="path1498"
       style="font-variation-settings:normal;vector-effect:none;fill:#968c77;fill-opacity:1;stroke:none;stroke-width:0.987581;stroke-linecap:round;stroke-linejoin:bevel;stroke-miterlimit:4;stroke-dasharray:none;stroke-dashoffset:0;stroke-opacity:1;paint-order:normal;stop-color:#000000"
       d="m 236.74537,183.46256 v 14.70091 h -3.99563 v -14.69109 a 12.143461,13.297904 0 0 0 -4.04678,1.59525 12.143461,13.297904 0 0 0 -6.07146,11.51661 v 1.58181 h 24.28688 v -1.58181 a 12.143461,13.297904 0 0 0 -6.07146,-11.51661 12.143461,13.297904 0 0 0 -4.10155,-1.60507 z" />
    <path
       style="fill:#968c77;stroke-width:6.58461;stroke-opacity:0.019685;paint-order:markers fill stroke;stop-color:#000000;fill-opacity:1"
       d="m 237.55284,179.91481 -0.80719,2.22777 v 5.57434 h 5.40122 l 2.82722,-7.80211 z"
       id="path1430" />
    <path
       style="fill:#968c77;stroke-width:6.58461;stroke-opacity:0.019685;paint-order:markers fill stroke;stop-color:#000000;fill-opacity:1"
       d="m 224.47743,179.79233 2.82723,7.80211 h 5.44514 v -5.45186 l -0.85163,-2.35025 z"
       id="rect1486" />
  </g>
  <inkscape:templateinfo>
    <inkscape:name>Dark Background</inkscape:name>
    <inkscape:shortdesc>8.5x11</inkscape:shortdesc>
    <inkscape:date>2020-07-09</inkscape:date>
  </inkscape:templateinfo>
</svg>
