<?xml version="1.0" encoding="UTF-8"?>
<svg width="1.4583in" height="1.4583in" version="1.1" viewBox="0 0 37.042 37.042" xmlns="http://www.w3.org/2000/svg" xmlns:xlink="http://www.w3.org/1999/xlink">
 <defs>
  <linearGradient id="linearGradient1346" x1="54.811" x2="91.853" y1="32.815" y2="32.815" gradientTransform="translate(65.875 102.69)" gradientUnits="userSpaceOnUse">
   <stop stop-color="#b3a995" offset="0"/>
  </linearGradient>
  <linearGradient id="4-4" x1="72.605" x2="90.771" y1="150.69" y2="150.69" gradientTransform="matrix(1.3369 0 0 .74799 29.997 27.727)" gradientUnits="userSpaceOnUse">
   <stop stop-color="#7e7867" offset="0"/>
  </linearGradient>
 </defs>
 <g transform="translate(-120.69 -116.99)" display="none">
  <rect width="215.9" height="279.4" fill="#fcfcfc" style="paint-order:markers fill stroke"/>
 </g>
 <g transform="translate(-120.69 -116.99)">
  <rect x="120.69" y="116.99" width="37.042" height="37.042" ry="2.0045" fill="url(#linearGradient1346)" style="paint-order:normal"/>
  <g stroke-linecap="round" stroke-linejoin="bevel" stroke-width=".544">
   <path d="m133.47 129.44v0.64492h-3.2902v6.5433h5.3e-4a3.7645 3.7645 0 0 0 3.7646 3.7646v-0.96635a2.6043 2.6043 0 0 0 2.1301 1.1054v-11.092zm8.8408 0v11.092a2.6043 2.6043 0 0 0 2.1301-1.1059v0.96687a3.7645 3.7645 0 0 0 3.7646-3.7646h5.3e-4v-6.5433h-3.2908v-0.64492z" fill="#615b4c" stop-color="#000000"/>
   <circle cx="132.48" cy="136.27" r="1.7582" fill="none" stop-color="#000000" stroke="#d3cdc3"/>
   <circle cx="146.01" cy="136.27" r="1.7582" fill="none" stop-color="#000000" stroke="#d3cdc3"/>
  </g>
  <g>
   <rect x="131.92" y="123.18" width="14.547" height="16.552" ry="7.2734" fill="#968c77" stop-color="#000000" style="font-variation-settings:normal;paint-order:normal"/>
   <path d="m139.19 121.11a9.013 9.013 0 0 0-9.0098 9.0129h18.026a9.013 9.013 0 0 0-9.0134-9.0129 9.013 9.013 0 0 0-3e-3 0z" fill="#615b4c" stop-color="#000000" stroke-linecap="round" stroke-linejoin="bevel" stroke-width=".544"/>
   <path d="m139.24 140.44a12.143 12.143 0 0 0-6.0999 1.6268 12.143 12.143 0 0 0-6.0715 10.517v1.4449h24.287v-1.4449a12.143 12.143 0 0 0-6.0715-10.517 12.143 12.143 0 0 0-6.0441-1.6268z" fill="url(#4-4)" stop-color="#000000" style="font-variation-settings:normal;paint-order:normal"/>
   <rect x="136.62" y="135.77" width="5.174" height="7.7654" ry="2.7045" fill="#968c77" stop-color="#000000" style="font-variation-settings:normal;paint-order:normal"/>
   <g transform="translate(25.949 20.703)" fill="#d3cdc3" stroke-linecap="round" stroke-linejoin="bevel">
    <path d="m108.12 126.92a3.2092 5.3189 0 0 1-3.1905 5.3184v1.0597h16.728v-1.0597a3.2092 5.3189 0 0 1-3.1905-5.3184z" stop-color="#000000" stroke-width=".87746"/>
    <path d="m110.29 120.06a12.143 12.143 0 0 0-2.1678 0.78083v9.9627h2.1678zm6.0224 0v10.744h2.1683v-9.9632a12.143 12.143 0 0 0-2.1683-0.78031z" stop-color="#000000" stroke-width=".3809"/>
   </g>
  </g>
  <g transform="translate(72.201 -13.788)">
   <ellipse cx="63.472" cy="145.95" rx="2.0398" ry="1.4861" fill="#d3cdc3" stop-color="#000000" style="font-variation-settings:normal;paint-order:normal"/>
   <ellipse cx="63.472" cy="145.95" rx=".885" ry="1.2626" fill="#413e35" stop-color="#000000" style="font-variation-settings:normal;paint-order:normal"/>
   <ellipse cx="70.541" cy="145.95" rx="2.0398" ry="1.4861" fill="#d3cdc3" stop-color="#000000" style="font-variation-settings:normal;paint-order:normal"/>
   <ellipse cx="70.541" cy="145.95" rx=".885" ry="1.2626" fill="#413e35" stop-color="#000000" style="font-variation-settings:normal;paint-order:normal"/>
  </g>
 </g>
</svg>
