<?xml version="1.0" encoding="UTF-8" standalone="no"?>
<svg
   inkscape:version="1.1 (c68e22c387, 2021-05-23)"
   id="svg8"
   version="1.1"
   viewBox="0 0 37.041668 37.04978"
   height="1.4586527in"
   width="1.4583334in"
   sodipodi:docname="player-portrait-9.svg"
   inkscape:export-filename="C:\Users\gabyb\OneDrive - UW\Documents\DIY Files\Secret Hitler SVG\export\player-portrait-1.png"
   inkscape:export-xdpi="300"
   inkscape:export-ydpi="300"
   xmlns:inkscape="http://www.inkscape.org/namespaces/inkscape"
   xmlns:sodipodi="http://sodipodi.sourceforge.net/DTD/sodipodi-0.dtd"
   xmlns:xlink="http://www.w3.org/1999/xlink"
   xmlns="http://www.w3.org/2000/svg"
   xmlns:svg="http://www.w3.org/2000/svg"
   xmlns:rdf="http://www.w3.org/1999/02/22-rdf-syntax-ns#"
   xmlns:cc="http://creativecommons.org/ns#"
   xmlns:dc="http://purl.org/dc/elements/1.1/">
  <defs
     id="defs2">
    <linearGradient
       id="7"
       gradientTransform="matrix(0,0,0,0,-192.31873,38.641632)">
      <stop
         style="stop-color:#b3a995;stop-opacity:1;"
         offset="0"
         id="stop2624" />
    </linearGradient>
    <linearGradient
       id="6"
       gradientTransform="matrix(2.9598334,0,0,4.6482784,-971.19374,-788.49204)">
      <stop
         style="stop-color:#a19a86;stop-opacity:1;"
         offset="0"
         id="stop2980" />
    </linearGradient>
    <linearGradient
       id="8"
       gradientTransform="matrix(0,0,0,0,20.9488,-188.21513)">
      <stop
         style="stop-color:#c9c2b5;stop-opacity:1;"
         offset="0"
         id="stop2972" />
    </linearGradient>
    <linearGradient
       id="9"
       gradientTransform="matrix(0,0,0,0,12.777471,99.362918)">
      <stop
         style="stop-color:#d3cdc3;stop-opacity:1;"
         offset="0"
         id="stop2966" />
    </linearGradient>
    <linearGradient
       id="4"
       gradientTransform="scale(1.3369113,0.74799279)"
       x1="41.05265"
       y1="37.347988"
       x2="59.21907"
       y2="37.347988"
       gradientUnits="userSpaceOnUse">
      <stop
         style="stop-color:#7e7867;stop-opacity:1;"
         offset="0"
         id="stop2597" />
    </linearGradient>
    <linearGradient
       id="2"
       x1="-86.010757"
       y1="-24.380556"
       x2="-66.571861"
       y2="-24.380556"
       gradientUnits="userSpaceOnUse">
      <stop
         style="stop-color:#4f4b41;stop-opacity:1;"
         offset="0"
         id="stop3000" />
    </linearGradient>
    <linearGradient
       id="6-0"
       x1="-86.010757"
       y1="-24.380556"
       x2="-78.779861"
       y2="-24.380556"
       gradientUnits="userSpaceOnUse">
      <stop
         style="stop-color:#a19a86;stop-opacity:1;"
         offset="0"
         id="stop2980-3" />
    </linearGradient>
    <linearGradient
       inkscape:collect="always"
       xlink:href="#7"
       id="linearGradient1413"
       gradientUnits="userSpaceOnUse"
       gradientTransform="translate(27.960368,100.36599)"
       x1="54.811352"
       y1="32.815384"
       x2="91.85302"
       y2="32.815384" />
    <linearGradient
       id="2-4"
       gradientTransform="matrix(0,0,0,0,-123.69291,-377.74216)">
      <stop
         style="stop-color:#4f4b41;stop-opacity:1;"
         offset="0"
         id="stop3000-6" />
    </linearGradient>
    <linearGradient
       id="4-6"
       gradientTransform="matrix(0,0,0,0,-114.96548,-519.45649)">
      <stop
         style="stop-color:#7e7867;stop-opacity:1;"
         offset="0"
         id="stop2597-7" />
    </linearGradient>
    <linearGradient
       inkscape:collect="always"
       xlink:href="#7"
       id="linearGradient2395"
       gradientTransform="matrix(1.3369112,0,0,0.74799282,-8.6815571,109.31937)"
       x1="73.176636"
       y1="38.495907"
       x2="91.343056"
       y2="38.495907"
       gradientUnits="userSpaceOnUse" />
    <linearGradient
       inkscape:collect="always"
       xlink:href="#2-4"
       id="linearGradient2397"
       gradientTransform="matrix(0.79342003,0,0,1.2603664,-8.6815571,109.31937)"
       x1="123.30274"
       y1="23.389648"
       x2="133.54071"
       y2="23.389648"
       gradientUnits="userSpaceOnUse" />
    <linearGradient
       inkscape:collect="always"
       xlink:href="#2-4"
       id="linearGradient2399"
       gradientTransform="matrix(0.79342,0,0,1.2603665,-8.6815571,109.31937)"
       x1="143.66145"
       y1="23.395842"
       x2="153.89943"
       y2="23.395842"
       gradientUnits="userSpaceOnUse" />
    <linearGradient
       inkscape:collect="always"
       xlink:href="#4-6"
       id="linearGradient2401"
       gradientTransform="matrix(0.57451119,0,0,1.7406101,-8.6815571,109.31937)"
       x1="170.28539"
       y1="18.811455"
       x2="175.82352"
       y2="18.811455"
       gradientUnits="userSpaceOnUse" />
    <linearGradient
       inkscape:collect="always"
       xlink:href="#4-6"
       id="linearGradient2403"
       gradientTransform="matrix(0.57451156,0,0,1.740609,-8.6815571,109.31937)"
       x1="207.00221"
       y1="18.815956"
       x2="212.54034"
       y2="18.815956"
       gradientUnits="userSpaceOnUse" />
  </defs>
  <sodipodi:namedview
     units="in"
     inkscape:snap-bbox="true"
     inkscape:showpageshadow="false"
     showgrid="false"
     inkscape:document-rotation="0"
     inkscape:current-layer="layer1"
     inkscape:document-units="mm"
     inkscape:cy="83.565338"
     inkscape:cx="60.085697"
     inkscape:zoom="5.4089412"
     inkscape:pageshadow="2"
     inkscape:pageopacity="0"
     borderopacity="1"
     bordercolor="#b7b7b7"
     pagecolor="#404040"
     id="base"
     inkscape:pagecheckerboard="0" />
  <metadata
     id="metadata5">
    <rdf:RDF>
      <cc:Work
         rdf:about="">
        <dc:format>image/svg+xml</dc:format>
        <dc:type
           rdf:resource="http://purl.org/dc/dcmitype/StillImage" />
        <dc:title />
      </cc:Work>
    </rdf:RDF>
  </metadata>
  <g
     inkscape:label="Background"
     id="layer2"
     inkscape:groupmode="layer"
     style="display:none"
     transform="translate(-82.771721,-114.66053)">
    <rect
       y="0"
       x="0"
       height="279.40002"
       width="215.90001"
       id="rect848"
       style="opacity:1;vector-effect:none;fill:#fcfcfc;fill-opacity:1;stroke:none;stroke-width:1.62428;stroke-linecap:butt;stroke-linejoin:miter;stroke-miterlimit:4;stroke-dasharray:none;stroke-dashoffset:0;stroke-opacity:1;paint-order:markers fill stroke" />
  </g>
  <g
     id="layer1"
     inkscape:groupmode="layer"
     inkscape:label="Layer 1"
     transform="translate(-82.771721,-114.66053)">
    <rect
       ry="2.0045214"
       y="114.66053"
       x="82.771721"
       height="37.041668"
       width="37.041668"
       id="rect1397"
       style="opacity:1;vector-effect:none;fill:url(#linearGradient1413);fill-opacity:1;stroke:none;stroke-width:0.861999;stroke-linecap:round;stroke-linejoin:bevel;stroke-miterlimit:4;stroke-dasharray:none;stroke-dashoffset:0;stroke-opacity:1;paint-order:normal" />
    <path
       id="path1401"
       style="font-variation-settings:normal;opacity:1;vector-effect:none;fill:url(#linearGradient2395);fill-opacity:1;stroke:none;stroke-width:0.94374;stroke-linecap:round;stroke-linejoin:bevel;stroke-miterlimit:4;stroke-dasharray:none;stroke-dashoffset:0;stroke-opacity:1;paint-order:normal;stop-color:#000000;stop-opacity:1"
       d="m 101.32046,138.11406 a 12.143461,12.143461 0 0 0 -6.099887,1.62677 12.143461,12.143461 0 0 0 -6.071463,10.51668 v 1.44487 H 113.436 v -1.44487 a 12.143461,12.143461 0 0 0 -6.07147,-10.51668 12.143461,12.143461 0 0 0 -6.04407,-1.62677 z" />
    <path
       id="path1367"
       style="fill:#968c77;fill-opacity:1;stroke-width:0.543999;stroke-linecap:round;stroke-linejoin:bevel;stop-color:#000000"
       d="m 101.31765,137.99345 a 10.820484,10.820484 0 0 0 -5.017226,1.22024 6.3734839,5.9075942 0 0 0 4.992356,2.23555 6.3734839,5.9075942 0 0 0 4.99191,-2.23555 10.820484,10.820484 0 0 0 -4.96704,-1.22024 z" />
    <path
       id="rect1394"
       style="fill:#d3cdc3;stroke-width:0.543999;stroke-linecap:round;stroke-linejoin:bevel;stop-color:#000000;fill-opacity:1"
       d="m 98.046434,137.09977 c -0.42902,0 -0.77411,0.34561 -0.77411,0.77463 v 0.82218 c 0,0.025 0.005,0.0485 0.007,0.0729 -0.73113,0.28277 -1.47095,0.63217 -2.05878,0.97151 -3.75714,2.16931 -6.071568,6.17824 -6.071467,10.51667 v 1.44488 h 7.605217 l 1.68879,-12.2313 0.14469,-0.96583 v -0.0827 l 0.0119,-0.0863 c -0.004,0.001 -0.008,0.003 -0.0119,0.004 v -1.24023 z m 5.950536,0 v 1.23972 c -0.004,-0.001 -0.008,-0.002 -0.0114,-0.003 l 0.0114,0.0822 v 0.0868 l 0.14521,0.96584 1.68827,12.23129 h 7.60574 v -1.44487 c 1e-4,-4.33843 -2.31432,-8.34736 -6.07146,-10.51667 -0.58772,-0.33928 -1.3278,-0.68878 -2.05879,-0.97152 0.002,-0.0243 0.007,-0.0479 0.007,-0.0729 v -0.82225 c 0,-0.42903 -0.34561,-0.77463 -0.77463,-0.77463 z"
       sodipodi:nodetypes="sssccsccccccccsccccccccsccsssc" />
    <rect
       style="font-variation-settings:normal;opacity:1;vector-effect:none;fill:#968c77;fill-opacity:1;stroke:none;stroke-width:0.94374;stroke-linecap:round;stroke-linejoin:bevel;stroke-miterlimit:4;stroke-dasharray:none;stroke-dashoffset:0;stroke-opacity:1;paint-order:normal;stop-color:#000000;stop-opacity:1"
       id="rect1403"
       width="5.4089947"
       height="7.765388"
       x="98.588051"
       y="133.44437"
       ry="2.7044973" />
    <path
       style="fill:#413e35;fill-opacity:1;stroke-width:0.543999;stroke-linecap:round;stroke-linejoin:bevel;stop-color:#000000"
       id="path1363"
       sodipodi:type="arc"
       sodipodi:cx="-94.768074"
       sodipodi:cy="-127.99491"
       sodipodi:rx="3.1157784"
       sodipodi:ry="3.1157784"
       sodipodi:start="0"
       sodipodi:end="1.5707963"
       sodipodi:arc-type="slice"
       d="m -91.652296,-127.99491 a 3.1157784,3.1157784 0 0 1 -3.115778,3.11578 v -3.11578 z"
       transform="scale(-1)" />
    <path
       id="path1431"
       style="fill:#413e35;fill-opacity:1;stroke:none;stroke-width:0.543999;stroke-linecap:round;stroke-linejoin:bevel;stop-color:#000000"
       d="m 95.331874,124.4499 a 3.5454087,3.5454087 0 0 0 -0.95085,0.95085 h -1.02112 v 1.02061 a 3.5454087,3.5454087 0 0 0 -1.57355,1.57354 h 1.57355 v 1.89549 a 1.4079437,1.5403962 0 0 0 1.40818,1.54048 v -1.54048 -1.89549 h 0.56379 z m 12.485026,0.95085 v 4.48964 1.54048 a 1.4079437,1.5403962 0 0 0 1.40818,-1.54048 v -4.48964 z" />
    <rect
       style="font-variation-settings:normal;opacity:1;vector-effect:none;fill:#968c77;fill-opacity:1;stroke:none;stroke-width:0.94374;stroke-linecap:round;stroke-linejoin:bevel;stroke-miterlimit:4;stroke-dasharray:none;stroke-dashoffset:0;stroke-opacity:1;paint-order:normal;stop-color:#000000;stop-opacity:1"
       id="rect1399"
       width="14.546783"
       height="16.551514"
       x="94.019173"
       y="121.00922"
       ry="7.2733917" />
    <ellipse
       style="font-variation-settings:normal;vector-effect:none;fill:#d3cdc3;fill-opacity:1;stroke:none;stroke-width:1.02701;stroke-linecap:round;stroke-linejoin:bevel;stroke-miterlimit:4;stroke-dasharray:none;stroke-dashoffset:0;stroke-opacity:1;paint-order:normal;stop-color:#000000"
       id="ellipse1405"
       cx="97.757973"
       cy="129.83501"
       rx="2.0397928"
       ry="1.4861348" />
    <ellipse
       style="font-variation-settings:normal;vector-effect:none;fill:#413e35;fill-opacity:1;stroke:none;stroke-width:1.17629;stroke-linecap:round;stroke-linejoin:bevel;stroke-miterlimit:4;stroke-dasharray:none;stroke-dashoffset:0;stroke-opacity:1;paint-order:normal;stop-color:#000000"
       id="ellipse1407"
       cx="97.757973"
       cy="129.83501"
       rx="0.88499999"
       ry="1.2625998" />
    <ellipse
       style="font-variation-settings:normal;vector-effect:none;fill:#d3cdc3;fill-opacity:1;stroke:none;stroke-width:1.02701;stroke-linecap:round;stroke-linejoin:bevel;stroke-miterlimit:4;stroke-dasharray:none;stroke-dashoffset:0;stroke-opacity:1;paint-order:normal;stop-color:#000000"
       id="ellipse1409"
       cx="104.82716"
       cy="129.83501"
       rx="2.0397928"
       ry="1.4861348" />
    <ellipse
       style="font-variation-settings:normal;vector-effect:none;fill:#413e35;fill-opacity:1;stroke:none;stroke-width:1.17629;stroke-linecap:round;stroke-linejoin:bevel;stroke-miterlimit:4;stroke-dasharray:none;stroke-dashoffset:0;stroke-opacity:1;paint-order:normal;stop-color:#000000"
       id="ellipse1411"
       cx="104.82716"
       cy="129.83501"
       rx="0.88499999"
       ry="1.2625998" />
    <path
       id="path1436"
       style="fill:#413e35;fill-opacity:1;stroke:none;stroke-width:0.543999;stroke-linecap:round;stroke-linejoin:bevel;stop-color:#000000"
       d="m 90.764193,120.91317 a 5.6891447,5.6891447 0 0 0 5.68906,5.68905 8.3844567,5.6891447 0 0 0 7.316857,-2.91145 4.8128706,4.8815556 0 0 0 4.8023,4.5589 v -2.84892 h 0.65267 a 4.4245638,4.4877072 0 0 0 -4.38733,-4.48707 8.3844567,5.6891447 0 0 1 0,-5.3e-4 h -8.384497 z" />
    <path
       id="rect1425"
       style="fill:url(#linearGradient2397);stroke-width:0.543999;stroke-linecap:round;stroke-linejoin:bevel;stop-color:#000000"
       d="m 97.272324,138.7989 a 12.143461,12.143461 0 0 0 -2.051551,0.94206 12.143461,12.143461 0 0 0 -6.071467,10.51667 v 1.44487 h 8.123018 z" />
    <path
       id="path1440"
       style="fill:url(#linearGradient2399);stroke-width:0.543999;stroke-linecap:round;stroke-linejoin:bevel;stop-color:#000000"
       d="m 105.30231,138.8067 a 12.143461,12.143461 0 0 1 2.05156,0.94206 12.143461,12.143461 0 0 1 6.07146,10.51667 v 1.44488 h -8.12302 z" />
    <path
       id="rect1380"
       style="fill:url(#linearGradient2401);stroke-width:0.543999;stroke-linecap:round;stroke-linejoin:bevel;stop-color:#000000"
       d="m 92.331023,142.06278 a 12.143461,12.143461 0 0 0 -3.181717,8.19485 v 1.44487 h 3.181717 z" />
    <path
       id="path1386"
       style="fill:url(#linearGradient2403);stroke-width:0.543999;stroke-linecap:round;stroke-linejoin:bevel;stop-color:#000000"
       d="m 110.24361,142.07059 a 12.143461,12.143461 0 0 1 3.18172,8.19485 v 1.44487 h -3.18172 z" />
  </g>
  <inkscape:templateinfo>
    <inkscape:name>Dark Background</inkscape:name>
    <inkscape:shortdesc>8.5x11</inkscape:shortdesc>
    <inkscape:date>2020-07-09</inkscape:date>
  </inkscape:templateinfo>
</svg>
