<?xml version="1.0" encoding="UTF-8" standalone="no"?>
<svg
   inkscape:version="1.1 (c68e22c387, 2021-05-23)"
   id="svg8"
   version="1.1"
   viewBox="0 0 37.041668 37.041859"
   height="1.4583409in"
   width="1.4583334in"
   sodipodi:docname="player-portrait-7.svg"
   inkscape:export-filename="C:\Users\gabyb\OneDrive - UW\Documents\DIY Files\Secret Hitler SVG\export\player-portrait-1.png"
   inkscape:export-xdpi="300"
   inkscape:export-ydpi="300"
   xmlns:inkscape="http://www.inkscape.org/namespaces/inkscape"
   xmlns:sodipodi="http://sodipodi.sourceforge.net/DTD/sodipodi-0.dtd"
   xmlns:xlink="http://www.w3.org/1999/xlink"
   xmlns="http://www.w3.org/2000/svg"
   xmlns:svg="http://www.w3.org/2000/svg"
   xmlns:rdf="http://www.w3.org/1999/02/22-rdf-syntax-ns#"
   xmlns:cc="http://creativecommons.org/ns#"
   xmlns:dc="http://purl.org/dc/elements/1.1/">
  <defs
     id="defs2">
    <linearGradient
       id="7"
       gradientTransform="matrix(0,0,0,0,-192.31873,38.641632)">
      <stop
         style="stop-color:#b3a995;stop-opacity:1;"
         offset="0"
         id="stop2624" />
    </linearGradient>
    <linearGradient
       id="6"
       gradientTransform="matrix(2.9598334,0,0,4.6482784,-971.19374,-788.49204)">
      <stop
         style="stop-color:#a19a86;stop-opacity:1;"
         offset="0"
         id="stop2980" />
    </linearGradient>
    <linearGradient
       id="8"
       gradientTransform="matrix(0,0,0,0,20.9488,-188.21513)">
      <stop
         style="stop-color:#c9c2b5;stop-opacity:1;"
         offset="0"
         id="stop2972" />
    </linearGradient>
    <linearGradient
       id="9"
       gradientTransform="matrix(0,0,0,0,220.56655,202.72013)">
      <stop
         style="stop-color:#d3cdc3;stop-opacity:1;"
         offset="0"
         id="stop2966" />
    </linearGradient>
    <linearGradient
       id="4"
       gradientTransform="scale(1.3369113,0.74799279)"
       x1="41.05265"
       y1="37.347988"
       x2="59.21907"
       y2="37.347988"
       gradientUnits="userSpaceOnUse">
      <stop
         style="stop-color:#7e7867;stop-opacity:1;"
         offset="0"
         id="stop2597" />
    </linearGradient>
    <linearGradient
       id="2"
       x1="-86.010757"
       y1="-24.380556"
       x2="-66.571861"
       y2="-24.380556"
       gradientUnits="userSpaceOnUse">
      <stop
         style="stop-color:#4f4b41;stop-opacity:1;"
         offset="0"
         id="stop3000" />
    </linearGradient>
    <linearGradient
       id="6-0"
       x1="-86.010757"
       y1="-24.380556"
       x2="-78.779861"
       y2="-24.380556"
       gradientUnits="userSpaceOnUse">
      <stop
         style="stop-color:#a19a86;stop-opacity:1;"
         offset="0"
         id="stop2980-3" />
    </linearGradient>
    <linearGradient
       id="2-4"
       gradientTransform="matrix(0,0,0,0,-123.69291,-377.74216)">
      <stop
         style="stop-color:#4f4b41;stop-opacity:1;"
         offset="0"
         id="stop3000-6" />
    </linearGradient>
    <linearGradient
       id="4-6"
       gradientTransform="matrix(0,0,0,0,-114.96548,-519.45649)">
      <stop
         style="stop-color:#7e7867;stop-opacity:1;"
         offset="0"
         id="stop2597-7" />
    </linearGradient>
    <linearGradient
       id="4-8"
       gradientTransform="matrix(1.3369116,0,0,0.7479926,-20.148415,114.34856)"
       x1="104.70857"
       y1="37.48616"
       x2="122.87498"
       y2="37.48616"
       gradientUnits="userSpaceOnUse">
      <stop
         style="stop-color:#7e7867;stop-opacity:1;"
         offset="0"
         id="stop2597-8" />
    </linearGradient>
    <linearGradient
       id="7-8"
       x1="177.41472"
       y1="4.9445109"
       x2="214.45639"
       y2="4.9445109"
       gradientUnits="userSpaceOnUse"
       gradientTransform="translate(-36.494285,139.49333)">
      <stop
         style="stop-color:#b3a995;stop-opacity:1;"
         offset="0"
         id="stop2624-3" />
    </linearGradient>
    <linearGradient
       id="1"
       gradientTransform="matrix(0,0,0,0,138.26132,-799.29972)">
      <stop
         style="stop-color:#413e35;stop-opacity:1;"
         offset="0"
         id="stop3006" />
    </linearGradient>
    <linearGradient
       inkscape:collect="always"
       xlink:href="#7"
       id="linearGradient1329"
       gradientUnits="userSpaceOnUse"
       gradientTransform="translate(100.95057,132.04843)"
       x1="54.811352"
       y1="32.815384"
       x2="91.85302"
       y2="32.815384" />
    <linearGradient
       id="4-62"
       gradientTransform="matrix(1.3369111,0,0,0.74799287,107.2023,99.039514)"
       x1="41.092491"
       y1="94.595772"
       x2="59.258911"
       y2="94.595772"
       gradientUnits="userSpaceOnUse">
      <stop
         style="stop-color:#7e7867;stop-opacity:1;"
         offset="0"
         id="stop2597-82" />
    </linearGradient>
    <linearGradient
       id="8-7"
       x1="64.599564"
       y1="76.484734"
       x2="65.922211"
       y2="76.484734"
       gradientUnits="userSpaceOnUse"
       gradientTransform="translate(107.2023,99.039514)">
      <stop
         style="stop-color:#c9c2b5;stop-opacity:1;"
         offset="0"
         id="stop2972-5" />
    </linearGradient>
    <linearGradient
       inkscape:collect="always"
       xlink:href="#7"
       id="linearGradient2988"
       gradientTransform="matrix(1.7571674,0,0,0.56909776,107.2023,99.039514)"
       x1="35.502602"
       y1="123.66228"
       x2="40.848076"
       y2="123.66228"
       gradientUnits="userSpaceOnUse" />
  </defs>
  <sodipodi:namedview
     units="in"
     inkscape:snap-bbox="true"
     inkscape:showpageshadow="false"
     showgrid="false"
     inkscape:document-rotation="0"
     inkscape:current-layer="layer1"
     inkscape:document-units="mm"
     inkscape:cy="47.062527"
     inkscape:cx="68.502123"
     inkscape:zoom="7.649398"
     inkscape:pageshadow="2"
     inkscape:pageopacity="0"
     borderopacity="1"
     bordercolor="#b7b7b7"
     pagecolor="#404040"
     id="base"
     inkscape:pagecheckerboard="0" />
  <metadata
     id="metadata5">
    <rdf:RDF>
      <cc:Work
         rdf:about="">
        <dc:format>image/svg+xml</dc:format>
        <dc:type
           rdf:resource="http://purl.org/dc/dcmitype/StillImage" />
        <dc:title />
      </cc:Work>
    </rdf:RDF>
  </metadata>
  <g
     inkscape:label="Background"
     id="layer2"
     inkscape:groupmode="layer"
     style="display:none"
     transform="translate(-155.76193,-146.34297)">
    <rect
       y="0"
       x="0"
       height="279.40002"
       width="215.90001"
       id="rect848"
       style="opacity:1;vector-effect:none;fill:#fcfcfc;fill-opacity:1;stroke:none;stroke-width:1.62428;stroke-linecap:butt;stroke-linejoin:miter;stroke-miterlimit:4;stroke-dasharray:none;stroke-dashoffset:0;stroke-opacity:1;paint-order:markers fill stroke" />
  </g>
  <g
     id="layer1"
     inkscape:groupmode="layer"
     inkscape:label="Layer 1"
     transform="translate(-155.76193,-146.34297)">
    <rect
       ry="2.0045214"
       y="146.34297"
       x="155.76193"
       height="37.041668"
       width="37.041668"
       id="rect1313"
       style="opacity:1;vector-effect:none;fill:url(#linearGradient1329);fill-opacity:1;stroke:none;stroke-width:0.861999;stroke-linecap:round;stroke-linejoin:bevel;stroke-miterlimit:4;stroke-dasharray:none;stroke-dashoffset:0;stroke-opacity:1;paint-order:normal" />
    <rect
       style="font-variation-settings:normal;opacity:1;vector-effect:none;fill:#413e35;fill-opacity:1;stroke:none;stroke-width:1.10723;stroke-linecap:round;stroke-linejoin:bevel;stroke-miterlimit:4;stroke-dasharray:none;stroke-dashoffset:0;stroke-opacity:1;paint-order:normal;stop-color:#000000;stop-opacity:1"
       id="rect1335"
       width="17.066765"
       height="19.418781"
       x="165.74939"
       y="151.25804"
       ry="8.5333824" />
    <path
       style="fill:#413e35;fill-opacity:1;stroke-width:0.94374;stroke-linecap:round;stroke-linejoin:bevel;stop-color:#000000"
       id="path1333"
       sodipodi:type="arc"
       sodipodi:cx="174.28276"
       sodipodi:cy="156.70665"
       sodipodi:rx="14.252001"
       sodipodi:ry="14.252001"
       sodipodi:start="0.6981317"
       sodipodi:end="2.443461"
       sodipodi:arc-type="slice"
       d="m 185.20043,165.86766 a 14.252001,14.252001 0 0 1 -10.91767,5.09099 14.252001,14.252001 0 0 1 -10.91767,-5.09099 l 10.91767,-9.16101 z" />
    <path
       id="rect1315"
       style="font-variation-settings:normal;opacity:1;vector-effect:none;fill:#968c77;fill-opacity:1;stroke:none;stroke-width:3.56689;stroke-linecap:round;stroke-linejoin:bevel;stroke-miterlimit:4;stroke-dasharray:none;stroke-dashoffset:0;stroke-opacity:1;paint-order:normal;stop-color:#000000;stop-opacity:1"
       d="M 70 23.994141 C 70.44952 23.994141 70.895833 24.00608 71.339844 24.027344 C 70.895643 24.00621 70.449615 23.994141 70 23.994141 z M 70 23.994141 C 69.608878 23.994141 69.221033 24.005469 68.833984 24.021484 C 69.221053 24.005465 69.608853 23.994141 70 23.994141 z M 68.582031 24.03125 C 68.212237 24.049874 67.844229 24.076406 67.478516 24.109375 C 67.844201 24.076403 68.212261 24.049878 68.582031 24.03125 z M 71.601562 24.042969 C 72.026158 24.067313 72.448149 24.09924 72.867188 24.142578 C 72.448334 24.099544 72.025897 24.067136 71.601562 24.042969 z M 67.271484 24.128906 C 66.897171 24.165469 66.525919 24.210412 66.15625 24.261719 C 66.525929 24.2104 66.897157 24.165478 67.271484 24.128906 z M 72.953125 24.152344 C 73.409587 24.201 73.863176 24.259435 74.3125 24.330078 C 73.863046 24.259831 73.409661 24.200691 72.953125 24.152344 z M 74.3125 24.330078 C 76.652815 24.698027 78.893279 25.359928 80.996094 26.275391 A 25.322169 29.248527 0 0 1 80.996094 26.271484 C 81.067516 26.302528 81.137882 26.335558 81.208984 26.367188 C 81.32524 26.418903 81.441253 26.470166 81.556641 26.523438 C 81.57746 26.533059 81.59835 26.543062 81.619141 26.552734 C 81.673362 26.577934 81.727224 26.603365 81.78125 26.628906 C 81.802886 26.639145 81.824099 26.649863 81.845703 26.660156 C 81.940571 26.705357 82.034646 26.750627 82.128906 26.796875 C 82.142478 26.803527 82.156363 26.809733 82.169922 26.816406 C 82.254937 26.858293 82.339315 26.900626 82.423828 26.943359 C 82.46746 26.9654 82.511191 26.9875 82.554688 27.009766 C 82.643952 27.055503 82.733573 27.10176 82.822266 27.148438 C 82.953992 27.217712 83.084404 27.288037 83.214844 27.359375 C 83.345604 27.430888 83.476023 27.50456 83.605469 27.578125 C 83.735158 27.651828 83.863839 27.725041 83.992188 27.800781 C 88.74181 30.603622 92.567468 34.793224 94.916016 39.822266 C 91.1242 31.699893 83.484405 25.763593 74.3125 24.330078 z M 65.980469 24.285156 C 65.61607 24.338113 65.254063 24.39979 64.894531 24.466797 C 65.253871 24.399817 65.616264 24.338099 65.980469 24.285156 z M 64.675781 24.507812 C 64.333164 24.574549 63.992158 24.647304 63.654297 24.726562 C 63.992779 24.647129 64.332523 24.574675 64.675781 24.507812 z M 63.371094 24.794922 C 63.033951 24.8778 62.699233 24.967374 62.367188 25.0625 C 62.698762 24.96749 63.034433 24.877716 63.371094 24.794922 z M 62.154297 25.125 C 61.822148 25.223089 61.490767 25.325428 61.164062 25.435547 C 61.491205 25.325246 61.821692 25.223236 62.154297 25.125 z M 60.898438 25.529297 C 60.595964 25.634744 60.295536 25.743793 59.998047 25.859375 C 60.295471 25.743789 60.596028 25.63475 60.898438 25.529297 z M 59.783203 25.943359 C 59.429889 26.084079 59.080209 26.231975 58.734375 26.386719 C 59.080286 26.231894 59.429804 26.08415 59.783203 25.943359 z M 58.726562 26.388672 C 58.376555 26.545405 58.031435 26.710119 57.689453 26.880859 C 58.031489 26.710035 58.376493 26.54548 58.726562 26.388672 z M 57.537109 26.958984 C 57.197255 27.131332 56.860754 27.310225 56.529297 27.496094 C 56.860822 27.31012 57.197178 27.131427 57.537109 26.958984 z M 56.470703 27.529297 C 56.155242 27.707216 55.844604 27.892164 55.537109 28.082031 C 55.84428 27.892311 56.155578 27.707092 56.470703 27.529297 z M 55.330078 28.210938 C 55.025695 28.402646 54.725794 28.599554 54.429688 28.802734 C 54.725855 28.599446 55.025626 28.402746 55.330078 28.210938 z M 54.341797 28.863281 C 54.030913 29.078388 53.7232 29.299903 53.421875 29.527344 C 53.723342 29.299711 54.030757 29.078564 54.341797 28.863281 z M 53.318359 29.607422 C 53.028055 29.828726 52.741935 30.054639 52.460938 30.287109 C 52.741765 30.054702 53.028231 29.828673 53.318359 29.607422 z M 52.306641 30.416016 C 52.032629 30.646101 51.762732 30.87867 51.498047 31.119141 C 51.762304 30.879002 52.033083 30.6458 52.306641 30.416016 z M 82.376953 31.128906 A 39.263588 29.248527 0 0 1 46.298828 48.855469 A 39.263588 29.248527 0 0 1 42.648438 48.728516 C 42.691384 48.293341 42.743804 47.860493 42.806641 47.431641 C 42.612833 48.753927 42.509766 50.106612 42.509766 51.484375 L 42.509766 59.0625 C 42.509766 74.291951 54.770549 86.552734 70 86.552734 C 85.229451 86.552734 97.490234 74.291951 97.490234 59.0625 L 97.490234 51.484375 C 97.490234 50.011463 97.373302 48.567169 97.152344 47.158203 A 25.322169 29.248527 0 0 1 82.376953 31.128906 z M 97.152344 47.158203 C 97.0716 46.643331 96.977857 46.133706 96.869141 45.628906 C 96.977759 46.133253 97.071663 46.64378 97.152344 47.158203 z M 42.806641 47.431641 C 42.995151 46.145083 43.271772 44.889175 43.630859 43.667969 C 43.271648 44.88919 42.995217 46.145047 42.806641 47.431641 z M 43.630859 43.667969 C 43.750555 43.2609 43.879867 42.857853 44.017578 42.458984 C 43.879848 42.857787 43.750576 43.260967 43.630859 43.667969 z M 44.017578 42.458984 C 44.292999 41.661247 44.604552 40.879307 44.949219 40.117188 C 44.604214 40.87971 44.293241 41.660795 44.017578 42.458984 z M 44.949219 40.117188 C 45.289906 39.363868 45.663661 38.628934 46.068359 37.914062 C 45.663523 38.628873 45.290035 39.363923 44.949219 40.117188 z M 51.455078 31.158203 C 51.168333 31.419822 50.888641 31.689432 50.613281 31.962891 C 50.888799 31.68919 51.168158 31.420046 51.455078 31.158203 z M 50.544922 32.029297 C 50.265942 32.308277 49.993335 32.593989 49.726562 32.884766 C 49.993474 32.593724 50.265783 32.308524 50.544922 32.029297 z M 49.726562 32.884766 C 49.447534 33.188901 49.175369 33.499825 48.910156 33.816406 C 49.175103 33.50004 49.447822 33.188706 49.726562 32.884766 z M 48.910156 33.816406 C 48.645142 34.132751 48.387469 34.454901 48.136719 34.783203 C 48.387402 34.454881 48.645209 34.132772 48.910156 33.816406 z M 48.136719 34.783203 C 47.88735 35.109697 47.644955 35.44144 47.410156 35.779297 C 47.644853 35.44148 47.887458 35.109662 48.136719 34.783203 z M 47.400391 35.792969 C 47.170869 36.123664 46.949506 36.459652 46.734375 36.800781 C 46.949443 36.459646 47.170935 36.123672 47.400391 35.792969 z M 46.705078 36.847656 C 46.493227 37.185088 46.287215 37.527826 46.089844 37.875 C 46.287336 37.527465 46.49308 37.185432 46.705078 36.847656 z M 94.921875 39.835938 C 95.133993 40.290798 95.333922 40.752541 95.521484 41.220703 C 95.33389 40.752285 95.134039 40.291055 94.921875 39.835938 z M 95.521484 41.220703 C 95.898777 42.162439 96.225084 43.130478 96.498047 44.121094 C 96.225187 43.130736 95.898569 42.162273 95.521484 41.220703 z M 96.498047 44.121094 C 96.633985 44.61443 96.756405 45.112955 96.865234 45.617188 C 96.756395 45.112915 96.633985 44.614487 96.498047 44.121094 z "
       transform="matrix(0.26458333,0,0,0.26458333,155.76193,146.34297)" />
    <path
       id="path1317"
       style="font-variation-settings:normal;opacity:1;vector-effect:none;fill:url(#4-62);fill-opacity:1;stroke:none;stroke-width:0.94374;stroke-linecap:round;stroke-linejoin:bevel;stroke-miterlimit:4;stroke-dasharray:none;stroke-dashoffset:0;stroke-opacity:1;paint-order:normal;stop-color:#000000;stop-opacity:1"
       d="m 174.31066,169.79651 a 12.143461,12.143461 0 0 0 -6.09989,1.62677 12.143461,12.143461 0 0 0 -6.07146,10.51667 v 1.44488 h 24.28689 v -1.44488 a 12.143461,12.143461 0 0 0 -6.07147,-10.51667 12.143461,12.143461 0 0 0 -6.04407,-1.62677 z" />
    <rect
       style="fill:url(#linearGradient2988);stroke:none;stroke-width:0;stroke-linecap:round;stroke-linejoin:miter;stroke-miterlimit:4;stroke-dasharray:none;stop-color:#000000"
       id="rect1220"
       width="9.39289"
       height="3.0420964"
       x="169.58632"
       y="169.41544" />
    <path
       id="path1230"
       style="font-variation-settings:normal;opacity:1;vector-effect:none;fill:#968c77;fill-opacity:1;stroke:none;stroke-width:0.94374;stroke-linecap:round;stroke-linejoin:bevel;stroke-miterlimit:4;stroke-dasharray:none;stroke-dashoffset:0;stroke-opacity:1;paint-order:normal;stop-color:#000000;stop-opacity:1"
       d="m 174.31066,169.79651 c -1.76765,-0.004 -3.51486,0.37804 -5.11958,1.11931 l 1.65331,2.98018 h 7.52804 v -3.38997 c -1.30358,-0.46632 -2.6773,-0.70628 -4.06177,-0.70952 z"
       sodipodi:nodetypes="cccccc" />
    <rect
       style="font-variation-settings:normal;opacity:1;vector-effect:none;fill:#968c77;fill-opacity:1;stroke:none;stroke-width:0.94374;stroke-linecap:round;stroke-linejoin:bevel;stroke-miterlimit:4;stroke-dasharray:none;stroke-dashoffset:0;stroke-opacity:1;paint-order:normal;stop-color:#000000;stop-opacity:1"
       id="rect1319"
       width="5.4089947"
       height="7.765388"
       x="171.57826"
       y="165.12682"
       ry="2.7044973" />
    <ellipse
       style="font-variation-settings:normal;vector-effect:none;fill:#d3cdc3;fill-opacity:1;stroke:none;stroke-width:1.02701;stroke-linecap:round;stroke-linejoin:bevel;stroke-miterlimit:4;stroke-dasharray:none;stroke-dashoffset:0;stroke-opacity:1;paint-order:normal;stop-color:#000000"
       id="ellipse1321"
       cx="170.74818"
       cy="161.51746"
       rx="2.0397928"
       ry="1.4861348" />
    <ellipse
       style="font-variation-settings:normal;vector-effect:none;fill:#413e35;fill-opacity:1;stroke:none;stroke-width:1.17629;stroke-linecap:round;stroke-linejoin:bevel;stroke-miterlimit:4;stroke-dasharray:none;stroke-dashoffset:0;stroke-opacity:1;paint-order:normal;stop-color:#000000"
       id="ellipse1323"
       cx="170.74818"
       cy="161.51746"
       rx="0.88499999"
       ry="1.2625998" />
    <ellipse
       style="font-variation-settings:normal;vector-effect:none;fill:#d3cdc3;fill-opacity:1;stroke:none;stroke-width:1.02701;stroke-linecap:round;stroke-linejoin:bevel;stroke-miterlimit:4;stroke-dasharray:none;stroke-dashoffset:0;stroke-opacity:1;paint-order:normal;stop-color:#000000"
       id="ellipse1325"
       cx="177.81735"
       cy="161.51746"
       rx="2.0397928"
       ry="1.4861348" />
    <ellipse
       style="font-variation-settings:normal;vector-effect:none;fill:#413e35;fill-opacity:1;stroke:none;stroke-width:1.17629;stroke-linecap:round;stroke-linejoin:bevel;stroke-miterlimit:4;stroke-dasharray:none;stroke-dashoffset:0;stroke-opacity:1;paint-order:normal;stop-color:#000000"
       id="ellipse1327"
       cx="177.81735"
       cy="161.51746"
       rx="0.88499999"
       ry="1.2625998" />
    <path
       style="fill:#413e35;fill-opacity:1;stroke-width:0.94374;stroke-linecap:round;stroke-linejoin:bevel;stop-color:#000000"
       d="m 163.36508,165.86765 2.80175,-8.70258 1.15752,10.43955 z"
       id="path1143"
       sodipodi:nodetypes="cccc" />
    <path
       style="fill:#413e35;fill-opacity:1;stroke-width:0.94374;stroke-linecap:round;stroke-linejoin:bevel;stop-color:#000000"
       d="m 185.20042,165.86766 -2.80175,-8.70258 -1.15752,10.43955 z"
       id="path1145"
       sodipodi:nodetypes="cccc" />
    <path
       id="path1147"
       style="fill:#413e35;fill-opacity:1;stroke-width:1.02232;stroke-linecap:round;stroke-linejoin:bevel;stop-color:#000000"
       d="m 174.28257,152.69154 c -3.78323,0 -6.87316,2.85982 -7.23677,6.5443 a 10.388491,7.7386728 0 0 0 0.96584,0.0336 10.388491,7.7386728 0 0 0 9.97303,-5.57072 c -1.08341,-0.63941 -2.34795,-1.00717 -3.7021,-1.00717 z" />
    <path
       id="ellipse1149"
       style="fill:#413e35;fill-opacity:1;stroke-width:0.820997;stroke-linecap:round;stroke-linejoin:bevel;stop-color:#000000"
       d="m 177.19195,153.29409 a 6.6998239,7.7386728 0 0 0 4.27468,5.52627 c -0.39066,-2.49087 -2.03669,-4.55353 -4.27468,-5.52627 z" />
    <path
       id="path1216"
       style="fill:#d3cdc3;stroke:none;stroke-width:0;stroke-linecap:round;stroke-linejoin:miter;stroke-miterlimit:4;stroke-dasharray:none;stop-color:#000000;fill-opacity:1"
       d="m 178.97921,169.41545 a 3.2347535,3.2347535 0 0 1 0.75335,3.1458 3.2347535,3.2347535 0 0 1 -2.34767,2.22533 3.2347535,3.2347535 0 0 1 -3.10103,-0.92048 l 2.34767,-2.22533 z" />
    <path
       id="path1218"
       style="fill:#d3cdc3;stroke:none;stroke-width:0;stroke-linecap:round;stroke-linejoin:miter;stroke-miterlimit:4;stroke-dasharray:none;stop-color:#000000;fill-opacity:1"
       d="m 169.58631,169.41544 a 3.2347535,3.2347535 0 0 0 -0.75335,3.14581 3.2347535,3.2347535 0 0 0 2.34767,2.22532 3.2347535,3.2347535 0 0 0 3.10103,-0.92048 l -2.34768,-2.22533 z" />
    <circle
       style="fill:url(#8-7);stroke:none;stroke-width:0;stroke-linecap:round;stroke-linejoin:miter;stroke-miterlimit:4;stroke-dasharray:none;stop-color:#000000"
       id="path1236"
       cx="172.4632"
       cy="176.18556"
       r="0.66132563" />
  </g>
  <inkscape:templateinfo>
    <inkscape:name>Dark Background</inkscape:name>
    <inkscape:shortdesc>8.5x11</inkscape:shortdesc>
    <inkscape:date>2020-07-09</inkscape:date>
  </inkscape:templateinfo>
</svg>
