<?xml version="1.0" encoding="UTF-8"?>
<svg width="1.4583in" height="1.4587in" version="1.1" viewBox="0 0 37.042 37.05" xmlns="http://www.w3.org/2000/svg" xmlns:xlink="http://www.w3.org/1999/xlink">
 <defs>
  <linearGradient id="7" gradientTransform="matrix(0 0 0 0 -192.32 38.642)">
   <stop stop-color="#b3a995" offset="0"/>
  </linearGradient>
  <linearGradient id="linearGradient1413" x1="54.811" x2="91.853" y1="32.815" y2="32.815" gradientTransform="translate(27.96 100.37)" gradientUnits="userSpaceOnUse" xlink:href="#7"/>
  <linearGradient id="2-4" gradientTransform="matrix(0 0 0 0 -123.69 -377.74)">
   <stop stop-color="#4f4b41" offset="0"/>
  </linearGradient>
  <linearGradient id="4-6" gradientTransform="matrix(0 0 0 0 -114.97 -519.46)">
   <stop stop-color="#7e7867" offset="0"/>
  </linearGradient>
  <linearGradient id="linearGradient2395" x1="73.177" x2="91.343" y1="38.496" y2="38.496" gradientTransform="matrix(1.3369 0 0 .74799 -8.6816 109.32)" gradientUnits="userSpaceOnUse" xlink:href="#7"/>
  <linearGradient id="linearGradient2397" x1="123.3" x2="133.54" y1="23.39" y2="23.39" gradientTransform="matrix(.79342 0 0 1.2604 -8.6816 109.32)" gradientUnits="userSpaceOnUse" xlink:href="#2-4"/>
  <linearGradient id="linearGradient2399" x1="143.66" x2="153.9" y1="23.396" y2="23.396" gradientTransform="matrix(.79342 0 0 1.2604 -8.6816 109.32)" gradientUnits="userSpaceOnUse" xlink:href="#2-4"/>
  <linearGradient id="linearGradient2401" x1="170.29" x2="175.82" y1="18.811" y2="18.811" gradientTransform="matrix(.57451 0 0 1.7406 -8.6816 109.32)" gradientUnits="userSpaceOnUse" xlink:href="#4-6"/>
  <linearGradient id="linearGradient2403" x1="207" x2="212.54" y1="18.816" y2="18.816" gradientTransform="matrix(.57451 0 0 1.7406 -8.6816 109.32)" gradientUnits="userSpaceOnUse" xlink:href="#4-6"/>
 </defs>
 <g transform="translate(-82.772 -114.66)" display="none">
  <rect width="215.9" height="279.4" fill="#fcfcfc" style="paint-order:markers fill stroke"/>
 </g>
 <g transform="translate(-82.772 -114.66)">
  <g>
   <rect x="82.772" y="114.66" width="37.042" height="37.042" ry="2.0045" fill="url(#linearGradient1413)" style="paint-order:normal"/>
   <path d="m101.32 138.11a12.143 12.143 0 0 0-6.0999 1.6268 12.143 12.143 0 0 0-6.0715 10.517v1.4449h24.287v-1.4449a12.143 12.143 0 0 0-6.0715-10.517 12.143 12.143 0 0 0-6.0441-1.6268z" fill="url(#linearGradient2395)" stop-color="#000000" style="font-variation-settings:normal;paint-order:normal"/>
   <path d="m101.32 137.99a10.82 10.82 0 0 0-5.0172 1.2202 6.3735 5.9076 0 0 0 4.9924 2.2356 6.3735 5.9076 0 0 0 4.9919-2.2356 10.82 10.82 0 0 0-4.967-1.2202z" fill="#968c77" stop-color="#000000" stroke-linecap="round" stroke-linejoin="bevel" stroke-width=".544"/>
   <path d="m98.046 137.1c-0.42902 0-0.77411 0.34561-0.77411 0.77463v0.82218c0 0.025 5e-3 0.0485 7e-3 0.0729-0.73113 0.28277-1.471 0.63217-2.0588 0.97151-3.7571 2.1693-6.0716 6.1782-6.0715 10.517v1.4449h7.6052l1.6888-12.231 0.14469-0.96583v-0.0827l0.0119-0.0863c-4e-3 1e-3 -8e-3 3e-3 -0.0119 4e-3v-1.2402zm5.9505 0v1.2397c-4e-3 -1e-3 -8e-3 -2e-3 -0.0114-3e-3l0.0114 0.0822v0.0868l0.14521 0.96584 1.6883 12.231h7.6057v-1.4449c1e-4 -4.3384-2.3143-8.3474-6.0715-10.517-0.58772-0.33928-1.3278-0.68878-2.0588-0.97152 2e-3 -0.0243 7e-3 -0.0479 7e-3 -0.0729v-0.82225c0-0.42903-0.34561-0.77463-0.77463-0.77463z" fill="#d3cdc3" stop-color="#000000" stroke-linecap="round" stroke-linejoin="bevel" stroke-width=".544"/>
   <rect x="98.588" y="133.44" width="5.409" height="7.7654" ry="2.7045" fill="#968c77" stop-color="#000000" style="font-variation-settings:normal;paint-order:normal"/>
   <path transform="scale(-1)" d="m-91.652-127.99a3.1158 3.1158 0 0 1-3.1158 3.1158v-3.1158z" fill="#413e35" stop-color="#000000" stroke-linecap="round" stroke-linejoin="bevel" stroke-width=".544"/>
   <path d="m95.332 124.45a3.5454 3.5454 0 0 0-0.95085 0.95085h-1.0211v1.0206a3.5454 3.5454 0 0 0-1.5736 1.5735h1.5736v1.8955a1.4079 1.5404 0 0 0 1.4082 1.5405v-3.436h0.56379zm12.485 0.95085v6.0301a1.4079 1.5404 0 0 0 1.4082-1.5405v-4.4896z" fill="#413e35" stop-color="#000000"/>
   <rect x="94.019" y="121.01" width="14.547" height="16.552" ry="7.2734" fill="#968c77" stop-color="#000000" style="font-variation-settings:normal;paint-order:normal"/>
   <ellipse cx="97.758" cy="129.84" rx="2.0398" ry="1.4861" fill="#d3cdc3" stop-color="#000000" style="font-variation-settings:normal;paint-order:normal"/>
   <ellipse cx="97.758" cy="129.84" rx=".885" ry="1.2626" fill="#413e35" stop-color="#000000" style="font-variation-settings:normal;paint-order:normal"/>
   <ellipse cx="104.83" cy="129.84" rx="2.0398" ry="1.4861" fill="#d3cdc3" stop-color="#000000" style="font-variation-settings:normal;paint-order:normal"/>
   <ellipse cx="104.83" cy="129.84" rx=".885" ry="1.2626" fill="#413e35" stop-color="#000000" style="font-variation-settings:normal;paint-order:normal"/>
   <path d="m90.764 120.91a5.6891 5.6891 0 0 0 5.6891 5.689 8.3845 5.6891 0 0 0 7.3169-2.9114 4.8129 4.8816 0 0 0 4.8023 4.5589v-2.8489h0.65267a4.4246 4.4877 0 0 0-4.3873-4.4871 8.3845 5.6891 0 0 1 0-5.3e-4h-8.3845z" fill="#413e35" stop-color="#000000"/>
  </g>
  <g stroke-linecap="round" stroke-linejoin="bevel" stroke-width=".544">
   <path d="m97.272 138.8a12.143 12.143 0 0 0-2.0516 0.94206 12.143 12.143 0 0 0-6.0715 10.517v1.4449h8.123z" fill="url(#linearGradient2397)" stop-color="#000000"/>
   <path d="m105.3 138.81a12.143 12.143 0 0 1 2.0516 0.94206 12.143 12.143 0 0 1 6.0715 10.517v1.4449h-8.123z" fill="url(#linearGradient2399)" stop-color="#000000"/>
   <path d="m92.331 142.06a12.143 12.143 0 0 0-3.1817 8.1948v1.4449h3.1817z" fill="url(#linearGradient2401)" stop-color="#000000"/>
   <path d="m110.24 142.07a12.143 12.143 0 0 1 3.1817 8.1948v1.4449h-3.1817z" fill="url(#linearGradient2403)" stop-color="#000000"/>
  </g>
 </g>
</svg>
